<?xml version="1.0" encoding="utf-8"?>
<!-- Generator: Adobe Adobe Illustrator 24.2.0, SVG Export Plug-In . SVG Version: 6.00 Build 0)  -->
<svg version="1.1"
	 id="Layer_1" inkscape:version="1.2.2 (b0a8486, 2022-12-01)" sodipodi:docname="ST-1.svg" xmlns:inkscape="http://www.inkscape.org/namespaces/inkscape" xmlns:sodipodi="http://sodipodi.sourceforge.net/DTD/sodipodi-0.dtd" xmlns:svg="http://www.w3.org/2000/svg"
	 xmlns="http://www.w3.org/2000/svg" xmlns:xlink="http://www.w3.org/1999/xlink" x="0px" y="0px" width="627.5px"
	 height="470.63px" viewBox="0 0 627.5 470.63" style="enable-background:new 0 0 627.5 470.63;" xml:space="preserve">
<style type="text/css">
	.st0{fill:#FF001E;}
	.st1{fill:#291212;stroke:#000000;stroke-miterlimit:10;}
	.st2{fill:none;stroke:#000000;stroke-miterlimit:10;}
	.st3{fill:none;stroke:#FFA600;stroke-width:2;stroke-miterlimit:10;}
	.st4{fill:#FFA600;stroke:#FFA600;stroke-miterlimit:10;}
	.st5{fill:none;stroke:#000000;stroke-width:2.1354;stroke-linecap:square;stroke-miterlimit:4.1;}
	.st6{font-family:'CourierNewPSMT';}
	.st7{font-size:21.3333px;}
	.st8{fill:#FFFFFF;stroke:#000000;stroke-miterlimit:4.1;stroke-dasharray:0,0,0,0,0,0;}
</style>
<path id="path1181" class="st0" d="M114.5,36.81c0,0,119.04,58.57,119.04,198.5c0,142.35-119.04,198.5-119.04,198.5
	S114.5,36.81,114.5,36.81z"/>
<circle id="circle1183" class="st1" cx="379.16" cy="361.18" r="6.14"/>
<circle id="circle1185" class="st1" cx="501.94" cy="103.35" r="6.14"/>
<g id="g1191">
	<path id="path1187" class="st2" d="M495.8,103.35c0,0-167.85,53.82-118.69,251.7"/>
	<path id="path1189" d="M378.04,354.66l2.54-10.6c0.2-0.85-0.56-1.62-1.41-1.43l-9.39,2.12c-0.85,0.19-1.21,1.22-0.66,1.9l6.85,8.48
		C376.58,355.89,377.81,355.61,378.04,354.66z"/>
</g>
<g id="g1255">
	<g id="g1251">
		<g id="g1235">
			<g id="g1197">
				<path id="path1193" class="st3" d="M443.45,295.5c3.95,8.11,11.82,8.14,15.79,0"/>
				<path id="path1195" class="st3" d="M475.03,295.5c-3.95-8.23-11.82-8.26-15.79,0"/>
			</g>
			<g id="g1203">
				<path id="path1199" class="st3" d="M411.88,295.5c3.95,8.11,11.82,8.14,15.79,0"/>
				<path id="path1201" class="st3" d="M443.45,295.5c-3.95-8.23-11.82-8.26-15.79,0"/>
			</g>
			<g id="g1209">
				<path id="path1205" class="st3" d="M380.31,295.5c3.95,8.11,11.82,8.14,15.79,0"/>
				<path id="path1207" class="st3" d="M411.88,295.5c-3.95-8.23-11.82-8.26-15.79,0"/>
			</g>
			<g id="g1215">
				<path id="path1211" class="st3" d="M348.74,295.5c3.95,8.11,11.82,8.14,15.79,0"/>
				<path id="path1213" class="st3" d="M380.31,295.5c-3.95-8.23-11.82-8.26-15.79,0"/>
			</g>
			<g id="g1221">
				<path id="path1217" class="st3" d="M317.17,295.5c3.95,8.11,11.82,8.14,15.79,0"/>
				<path id="path1219" class="st3" d="M348.74,295.5c-3.95-8.23-11.82-8.26-15.79,0"/>
			</g>
			<g id="g1227">
				<path id="path1223" class="st3" d="M285.6,295.5c3.95,8.11,11.82,8.14,15.79,0"/>
				<path id="path1225" class="st3" d="M317.17,295.5c-3.95-8.23-11.82-8.26-15.79,0"/>
			</g>
			<g id="g1233">
				<path id="path1229" class="st3" d="M254.02,295.5c3.95,8.11,11.82,8.14,15.79,0"/>
				<path id="path1231" class="st3" d="M285.6,295.5c-3.95-8.23-11.82-8.26-15.79,0"/>
			</g>
		</g>
		<g id="g1249">
			<g id="g1241">
				<path id="path1237" class="st3" d="M222.45,295.55c3.95,8.11,11.82,8.14,15.79,0"/>
				<path id="path1239" class="st3" d="M254.02,295.55c-3.95-8.23-11.82-8.26-15.79,0"/>
			</g>
			<g id="g1247">
				<path id="path1243" class="st3" d="M190.88,295.55c3.95,8.11,11.82,8.14,15.79,0"/>
				<path id="path1245" class="st3" d="M222.45,295.55c-3.95-8.23-11.82-8.26-15.79,0"/>
			</g>
		</g>
	</g>
	<path id="path1253" class="st4" d="M180.23,296.54l9.78,4.82c0.79,0.39,1.71-0.19,1.71-1.06v-9.63c0-0.88-0.92-1.45-1.71-1.06
		l-9.78,4.82C179.35,294.85,179.35,296.11,180.23,296.54z"/>
</g>
<g id="g1301">
	<g id="g1297">
		<g id="g1281">
			<g id="g1261">
				<path id="path1257" class="st3" d="M221.08,194.49c-3.95-8.11-11.82-8.14-15.79,0"/>
				<path id="path1259" class="st3" d="M189.51,194.49c3.95,8.23,11.82,8.26,15.79,0"/>
			</g>
			<g id="g1267">
				<path id="path1263" class="st3" d="M252.65,194.49c-3.95-8.11-11.82-8.14-15.79,0"/>
				<path id="path1265" class="st3" d="M221.08,194.49c3.95,8.23,11.82,8.26,15.79,0"/>
			</g>
			<g id="g1273">
				<path id="path1269" class="st3" d="M284.22,194.49c-3.95-8.11-11.82-8.14-15.79,0"/>
				<path id="path1271" class="st3" d="M252.65,194.49c3.95,8.23,11.82,8.26,15.79,0"/>
			</g>
			<g id="g1279">
				<path id="path1275" class="st3" d="M315.79,194.49c-3.95-8.11-11.82-8.14-15.79,0"/>
				<path id="path1277" class="st3" d="M284.22,194.49c3.95,8.23,11.82,8.26,15.79,0"/>
			</g>
		</g>
		<g id="g1295">
			<g id="g1287">
				<path id="path1283" class="st3" d="M347.36,194.45c-3.95-8.11-11.82-8.14-15.79,0"/>
				<path id="path1285" class="st3" d="M315.79,194.45c3.95,8.23,11.82,8.26,15.79,0"/>
			</g>
			<g id="g1293">
				<path id="path1289" class="st3" d="M378.94,194.45c-3.95-8.11-11.82-8.14-15.79,0"/>
				<path id="path1291" class="st3" d="M347.36,194.45c3.95,8.23,11.82,8.26,15.79,0"/>
			</g>
		</g>
	</g>
	<path id="path1299" class="st4" d="M389.59,193.46l-9.78-4.82c-0.79-0.39-1.71,0.19-1.71,1.06v9.63c0,0.88,0.92,1.45,1.71,1.06
		l9.78-4.82C390.47,195.14,390.47,193.89,389.59,193.46z"/>
</g>
<g id="g1307">
	<path id="path1303" class="st2" d="M385.3,361.18c0,0,167.85-53.82,118.69-251.7"/>
	<path id="path1305" d="M503.06,109.88l-2.54,10.6c-0.2,0.85,0.56,1.62,1.41,1.43l9.39-2.12c0.85-0.19,1.21-1.22,0.66-1.9
		l-6.85-8.48C504.51,108.64,503.29,108.92,503.06,109.88z"/>
</g>
<text transform="matrix(1 0 0 1 134.6138 241.6381)" class="st5 st6 st7">$T$</text>
<text transform="matrix(1 0 0 1 488.83 91.8819)" class="st8 st6 st7">$E$</text>
<text transform="matrix(1 0 0 1 384.8549 382.7723)" class="st5 st6 st7">$ES$</text>
<text transform="matrix(1 0 0 1 95.9507 457.2838)" class="st5 st6 st7">$</text>
<text transform="matrix(1 0 0 1 108.7528 457.2838)" class="st5 st6 st7">\</text>
<text transform="matrix(1 0 0 1 121.5548 457.2838)" class="st5 st6 st7">t</text>
<text transform="matrix(1 0 0 1 134.3569 457.2838)" class="st5 st6 st7">e</text>
<text transform="matrix(1 0 0 1 147.159 457.2838)" class="st5 st6 st7">x</text>
<text transform="matrix(1 0 0 1 159.961 457.2838)" class="st5 st6 st7">t</text>
<text transform="matrix(1 0 0 1 172.7631 457.2838)" class="st5 st6 st7">{</text>
<text transform="matrix(1 0 0 1 185.5652 457.2838)" class="st5 st6 st7">B</text>
<text transform="matrix(1 0 0 1 198.3672 457.2838)" class="st5 st6 st7">a</text>
<text transform="matrix(1 0 0 1 211.1693 457.2838)" class="st5 st6 st7">t</text>
<text transform="matrix(1 0 0 1 223.9713 457.2838)" class="st5 st6 st7">h</text>
<text transform="matrix(1 0 0 1 236.7734 457.2838)" class="st5 st6 st7">}</text>
<text transform="matrix(1 0 0 1 249.5755 457.2838)" class="st5 st6 st7">$</text>
<text transform="matrix(1 0 0 1 339.1987 457.1483)" class="st5 st6 st7">$</text>
<text transform="matrix(1 0 0 1 352.0008 457.1483)" class="st5 st6 st7">\</text>
<text transform="matrix(1 0 0 1 364.8029 457.1483)" class="st5 st6 st7">t</text>
<text transform="matrix(1 0 0 1 377.6049 457.1483)" class="st5 st6 st7">e</text>
<text transform="matrix(1 0 0 1 390.407 457.1483)" class="st5 st6 st7">x</text>
<text transform="matrix(1 0 0 1 403.209 457.1483)" class="st5 st6 st7">t</text>
<text transform="matrix(1 0 0 1 416.0111 457.1483)" class="st5 st6 st7">{</text>
<text transform="matrix(1 0 0 1 428.8132 457.1483)" class="st5 st6 st7">S</text>
<text transform="matrix(1 0 0 1 442.4429 457.1483)" class="st5 st6 st7">y</text>
<text transform="matrix(1 0 0 1 455.245 457.1483)" class="st5 st6 st7">s</text>
<text transform="matrix(1 0 0 1 468.0471 457.1483)" class="st5 st6 st7">t</text>
<text transform="matrix(1 0 0 1 480.8491 457.1483)" class="st5 st6 st7">e</text>
<text transform="matrix(1 0 0 1 493.6512 457.1483)" class="st5 st6 st7">m</text>
<text transform="matrix(1 0 0 1 506.4532 457.1483)" class="st5 st6 st7">}</text>
<text transform="matrix(1 0 0 1 519.2553 457.1483)" class="st5 st6 st7">$</text>
</svg>
