<?xml version="1.0" encoding="UTF-8" standalone="no"?>
<!-- Generator: Adobe Adobe Illustrator 24.2.0, SVG Export Plug-In . SVG Version: 6.00 Build 0)  -->

<svg
   version="1.1"
   id="Layer_1"
   inkscape:version="1.2.2 (b0a8486, 2022-12-01)"
   sodipodi:docname="ST-1.svg"
   x="0px"
   y="0px"
   width="627.5px"
   height="470.63px"
   viewBox="0 0 627.5 470.63"
   style="enable-background:new 0 0 627.5 470.63;"
   xml:space="preserve"
   xmlns:inkscape="http://www.inkscape.org/namespaces/inkscape"
   xmlns:sodipodi="http://sodipodi.sourceforge.net/DTD/sodipodi-0.dtd"
   xmlns="http://www.w3.org/2000/svg"
   xmlns:svg="http://www.w3.org/2000/svg"><defs
   id="defs133"><rect
     x="473.58154"
     y="68.30503"
     width="70.374879"
     height="23.596283"
     id="rect397" /></defs><sodipodi:namedview
   id="namedview131"
   pagecolor="#505050"
   bordercolor="#eeeeee"
   borderopacity="1"
   inkscape:showpageshadow="0"
   inkscape:pageopacity="0"
   inkscape:pagecheckerboard="0"
   inkscape:deskcolor="#505050"
   showgrid="false"
   inkscape:zoom="1.0129929"
   inkscape:cx="294.67136"
   inkscape:cy="195.95399"
   inkscape:window-width="1460"
   inkscape:window-height="691"
   inkscape:window-x="0"
   inkscape:window-y="25"
   inkscape:window-maximized="0"
   inkscape:current-layer="Layer_1" />
<style
   type="text/css"
   id="style2">
	.st0{fill:#FF001E;}
	.st1{fill:#291212;stroke:#000000;stroke-miterlimit:10;}
	.st2{fill:none;stroke:#000000;stroke-miterlimit:10;}
	.st3{fill:none;stroke:#FFA600;stroke-width:2;stroke-miterlimit:10;}
	.st4{fill:#FFA600;stroke:#FFA600;stroke-miterlimit:10;}
	.st5{fill:none;stroke:#000000;stroke-width:2.1354;stroke-linecap:square;stroke-miterlimit:4.1;}
	.st6{font-family:'CourierNewPSMT';}
	.st7{font-size:21.3333px;}
	.st8{fill:#FFFFFF;stroke:#000000;stroke-miterlimit:4.1;stroke-dasharray:0,0,0,0,0,0;}
</style>
<path
   id="path1181"
   class="st0"
   d="m 114.5,72.940874 c 0,0 119.04,47.909116 119.04,162.369126 0,116.43952 -119.04,162.36913 -119.04,162.36913 0,0 0,-324.738256 0,-324.738256 z"
   style="stroke-width:1" />
<circle
   id="circle1183"
   class="st1"
   cx="379.16"
   cy="361.18"
   r="6.14" />
<circle
   id="circle1185"
   class="st1"
   cx="501.94"
   cy="103.35"
   r="6.14" />
<g
   id="g1191">
	<path
   id="path1187"
   class="st2"
   d="M495.8,103.35c0,0-167.85,53.82-118.69,251.7" />
	<path
   id="path1189"
   d="M378.04,354.66l2.54-10.6c0.2-0.85-0.56-1.62-1.41-1.43l-9.39,2.12c-0.85,0.19-1.21,1.22-0.66,1.9l6.85,8.48   C376.58,355.89,377.81,355.61,378.04,354.66z" />
</g>
<g
   id="g1255">
	<g
   id="g1251">
		<g
   id="g1235">
			<g
   id="g1197">
				<path
   id="path1193"
   class="st3"
   d="M443.45,295.5c3.95,8.11,11.82,8.14,15.79,0" />
				<path
   id="path1195"
   class="st3"
   d="M475.03,295.5c-3.95-8.23-11.82-8.26-15.79,0" />
			</g>
			<g
   id="g1203">
				<path
   id="path1199"
   class="st3"
   d="M411.88,295.5c3.95,8.11,11.82,8.14,15.79,0" />
				<path
   id="path1201"
   class="st3"
   d="M443.45,295.5c-3.95-8.23-11.82-8.26-15.79,0" />
			</g>
			<g
   id="g1209">
				<path
   id="path1205"
   class="st3"
   d="M380.31,295.5c3.95,8.11,11.82,8.14,15.79,0" />
				<path
   id="path1207"
   class="st3"
   d="M411.88,295.5c-3.95-8.23-11.82-8.26-15.79,0" />
			</g>
			<g
   id="g1215">
				<path
   id="path1211"
   class="st3"
   d="M348.74,295.5c3.95,8.11,11.82,8.14,15.79,0" />
				<path
   id="path1213"
   class="st3"
   d="M380.31,295.5c-3.95-8.23-11.82-8.26-15.79,0" />
			</g>
			<g
   id="g1221">
				<path
   id="path1217"
   class="st3"
   d="M317.17,295.5c3.95,8.11,11.82,8.14,15.79,0" />
				<path
   id="path1219"
   class="st3"
   d="M348.74,295.5c-3.95-8.23-11.82-8.26-15.79,0" />
			</g>
			<g
   id="g1227">
				<path
   id="path1223"
   class="st3"
   d="M285.6,295.5c3.95,8.11,11.82,8.14,15.79,0" />
				<path
   id="path1225"
   class="st3"
   d="M317.17,295.5c-3.95-8.23-11.82-8.26-15.79,0" />
			</g>
			<g
   id="g1233">
				<path
   id="path1229"
   class="st3"
   d="M254.02,295.5c3.95,8.11,11.82,8.14,15.79,0" />
				<path
   id="path1231"
   class="st3"
   d="M285.6,295.5c-3.95-8.23-11.82-8.26-15.79,0" />
			</g>
		</g>
		<g
   id="g1249">
			<g
   id="g1241">
				<path
   id="path1237"
   class="st3"
   d="M222.45,295.55c3.95,8.11,11.82,8.14,15.79,0" />
				<path
   id="path1239"
   class="st3"
   d="M254.02,295.55c-3.95-8.23-11.82-8.26-15.79,0" />
			</g>
			<g
   id="g1247">
				<path
   id="path1243"
   class="st3"
   d="M190.88,295.55c3.95,8.11,11.82,8.14,15.79,0" />
				<path
   id="path1245"
   class="st3"
   d="M222.45,295.55c-3.95-8.23-11.82-8.26-15.79,0" />
			</g>
		</g>
	</g>
	<path
   id="path1253"
   class="st4"
   d="M180.23,296.54l9.78,4.82c0.79,0.39,1.71-0.19,1.71-1.06v-9.63c0-0.88-0.92-1.45-1.71-1.06   l-9.78,4.82C179.35,294.85,179.35,296.11,180.23,296.54z" />
</g>
<g
   id="g1301">
	<g
   id="g1297">
		<g
   id="g1281">
			<g
   id="g1261">
				<path
   id="path1257"
   class="st3"
   d="M221.08,194.49c-3.95-8.11-11.82-8.14-15.79,0" />
				<path
   id="path1259"
   class="st3"
   d="M189.51,194.49c3.95,8.23,11.82,8.26,15.79,0" />
			</g>
			<g
   id="g1267">
				<path
   id="path1263"
   class="st3"
   d="M252.65,194.49c-3.95-8.11-11.82-8.14-15.79,0" />
				<path
   id="path1265"
   class="st3"
   d="M221.08,194.49c3.95,8.23,11.82,8.26,15.79,0" />
			</g>
			<g
   id="g1273">
				<path
   id="path1269"
   class="st3"
   d="M284.22,194.49c-3.95-8.11-11.82-8.14-15.79,0" />
				<path
   id="path1271"
   class="st3"
   d="M252.65,194.49c3.95,8.23,11.82,8.26,15.79,0" />
			</g>
			<g
   id="g1279">
				<path
   id="path1275"
   class="st3"
   d="M315.79,194.49c-3.95-8.11-11.82-8.14-15.79,0" />
				<path
   id="path1277"
   class="st3"
   d="M284.22,194.49c3.95,8.23,11.82,8.26,15.79,0" />
			</g>
		</g>
		<g
   id="g1295">
			<g
   id="g1287">
				<path
   id="path1283"
   class="st3"
   d="M347.36,194.45c-3.95-8.11-11.82-8.14-15.79,0" />
				<path
   id="path1285"
   class="st3"
   d="M315.79,194.45c3.95,8.23,11.82,8.26,15.79,0" />
			</g>
			<g
   id="g1293">
				<path
   id="path1289"
   class="st3"
   d="M378.94,194.45c-3.95-8.11-11.82-8.14-15.79,0" />
				<path
   id="path1291"
   class="st3"
   d="M347.36,194.45c3.95,8.23,11.82,8.26,15.79,0" />
			</g>
		</g>
	</g>
	<path
   id="path1299"
   class="st4"
   d="M389.59,193.46l-9.78-4.82c-0.79-0.39-1.71,0.19-1.71,1.06v9.63c0,0.88,0.92,1.45,1.71,1.06   l9.78-4.82C390.47,195.14,390.47,193.89,389.59,193.46z" />
</g>
<g
   id="g1307">
	<path
   id="path1303"
   class="st2"
   d="M385.3,361.18c0,0,167.85-53.82,118.69-251.7" />
	<path
   id="path1305"
   d="M503.06,109.88l-2.54,10.6c-0.2,0.85,0.56,1.62,1.41,1.43l9.39-2.12c0.85-0.19,1.21-1.22,0.66-1.9   l-6.85-8.48C504.51,108.64,503.29,108.92,503.06,109.88z" />
</g>
<text
   class="st5 st6 st7"
   id="text68"
   x="18.588512"
   y="0"
   style="text-align:center;text-anchor:middle"
   transform="translate(134.6138,241.6381)">$T$</text><text
   class="st5 st6 st7"
   id="text68-3"
   x="501.87228"
   y="79.26899"
   style="font-size:21.3333px;font-family:CourierNewPSMT;text-align:center;text-anchor:middle;fill:none;stroke:#000000;stroke-width:2.1354;stroke-linecap:square;stroke-miterlimit:4.1">$ES$</text><text
   class="st5 st6 st7"
   id="text68-0"
   x="379.09229"
   y="400.10004"
   style="font-size:21.3333px;font-family:CourierNewPSMT;text-align:center;text-anchor:middle;fill:none;stroke:#000000;stroke-width:2.1354;stroke-linecap:square;stroke-miterlimit:4.1">$E$</text>
<text
   transform="translate(488.83,91.8819)"
   class="st8 st6 st7"
   id="text70" />





























<text
   xml:space="preserve"
   id="text395"
   style="font-size:21.3333px;font-family:Courier;-inkscape-font-specification:'Courier, Normal';text-align:center;white-space:pre;shape-inside:url(#rect397);display:inline;fill:none;stroke:#000000;stroke-width:2.13543;stroke-linecap:square;stroke-miterlimit:4.1;paint-order:markers stroke fill" /><text
   class="st5 st6 st7"
   id="text68-38"
   x="442.77493"
   y="434.98074"
   style="font-size:21.3333px;font-family:CourierNewPSMT;text-align:center;text-anchor:middle;fill:none;stroke:#000000;stroke-width:2.1354;stroke-linecap:square;stroke-miterlimit:4.1">System</text><text
   class="st5 st6 st7"
   id="text68-38-3"
   x="153.15022"
   y="435.17346"
   style="font-size:21.3333px;font-family:CourierNewPSMT;text-align:center;text-anchor:middle;fill:none;stroke:#000000;stroke-width:2.1354;stroke-linecap:square;stroke-miterlimit:4.1">Bath</text></svg>
