<?xml version="1.0" encoding="UTF-8" standalone="no"?>
<!-- Generator: Adobe Adobe Illustrator 24.2.0, SVG Export Plug-In . SVG Version: 6.00 Build 0)  -->

<svg
   version="1.1"
   id="Layer_1"
   x="0px"
   y="0px"
   width="627.5px"
   height="470.63px"
   viewBox="0 0 627.5 470.63"
   style="enable-background:new 0 0 627.5 470.63;"
   xml:space="preserve"
   sodipodi:docname="ST-1.svg"
   inkscape:version="1.2.2 (b0a8486, 2022-12-01)"
   xmlns:inkscape="http://www.inkscape.org/namespaces/inkscape"
   xmlns:sodipodi="http://sodipodi.sourceforge.net/DTD/sodipodi-0.dtd"
   xmlns="http://www.w3.org/2000/svg"
   xmlns:svg="http://www.w3.org/2000/svg"><defs
   id="defs1312" /><sodipodi:namedview
   id="namedview1310"
   pagecolor="#505050"
   bordercolor="#eeeeee"
   borderopacity="1"
   inkscape:showpageshadow="0"
   inkscape:pageopacity="0"
   inkscape:pagecheckerboard="0"
   inkscape:deskcolor="#505050"
   showgrid="false"
   inkscape:zoom="2.1421447"
   inkscape:cx="449.54947"
   inkscape:cy="165.25495"
   inkscape:window-width="1276"
   inkscape:window-height="742"
   inkscape:window-x="0"
   inkscape:window-y="25"
   inkscape:window-maximized="0"
   inkscape:current-layer="Layer_1" />
<style
   type="text/css"
   id="style1179">
	.st0{fill:#FF001E;}
	.st1{fill:#291212;stroke:#000000;stroke-miterlimit:10;}
	.st2{fill:none;stroke:#000000;stroke-miterlimit:10;}
	.st3{fill:none;stroke:#FFA600;stroke-width:2;stroke-miterlimit:10;}
	.st4{fill:#FFA600;stroke:#FFA600;stroke-miterlimit:10;}
</style>
<path
   class="st0"
   d="M114.5,36.81c0,0,119.04,58.57,119.04,198.5c0,142.35-119.04,198.5-119.04,198.5V36.81z"
   id="path1181" />
<circle
   class="st1"
   cx="379.16"
   cy="361.18"
   r="6.14"
   id="circle1183" />
<circle
   class="st1"
   cx="501.94"
   cy="103.35"
   r="6.14"
   id="circle1185" />
<g
   id="g1191">
	<path
   class="st2"
   d="M495.8,103.35c0,0-167.85,53.82-118.69,251.7"
   id="path1187" />
	<path
   d="M378.04,354.66l2.54-10.6c0.2-0.85-0.56-1.62-1.41-1.43l-9.39,2.12c-0.85,0.19-1.21,1.22-0.66,1.9l6.85,8.48   C376.58,355.89,377.81,355.61,378.04,354.66z"
   id="path1189" />
</g>
<g
   id="g1255">
	<g
   id="g1251">
		<g
   id="g1235">
			<g
   id="g1197">
				<path
   class="st3"
   d="M443.45,295.5c3.95,8.11,11.82,8.14,15.79,0"
   id="path1193" />
				<path
   class="st3"
   d="M475.03,295.5c-3.95-8.23-11.82-8.26-15.79,0"
   id="path1195" />
			</g>
			<g
   id="g1203">
				<path
   class="st3"
   d="M411.88,295.5c3.95,8.11,11.82,8.14,15.79,0"
   id="path1199" />
				<path
   class="st3"
   d="M443.45,295.5c-3.95-8.23-11.82-8.26-15.79,0"
   id="path1201" />
			</g>
			<g
   id="g1209">
				<path
   class="st3"
   d="M380.31,295.5c3.95,8.11,11.82,8.14,15.79,0"
   id="path1205" />
				<path
   class="st3"
   d="M411.88,295.5c-3.95-8.23-11.82-8.26-15.79,0"
   id="path1207" />
			</g>
			<g
   id="g1215">
				<path
   class="st3"
   d="M348.74,295.5c3.95,8.11,11.82,8.14,15.79,0"
   id="path1211" />
				<path
   class="st3"
   d="M380.31,295.5c-3.95-8.23-11.82-8.26-15.79,0"
   id="path1213" />
			</g>
			<g
   id="g1221">
				<path
   class="st3"
   d="M317.17,295.5c3.95,8.11,11.82,8.14,15.79,0"
   id="path1217" />
				<path
   class="st3"
   d="M348.74,295.5c-3.95-8.23-11.82-8.26-15.79,0"
   id="path1219" />
			</g>
			<g
   id="g1227">
				<path
   class="st3"
   d="M285.6,295.5c3.95,8.11,11.82,8.14,15.79,0"
   id="path1223" />
				<path
   class="st3"
   d="M317.17,295.5c-3.95-8.23-11.82-8.26-15.79,0"
   id="path1225" />
			</g>
			<g
   id="g1233">
				<path
   class="st3"
   d="M254.02,295.5c3.95,8.11,11.82,8.14,15.79,0"
   id="path1229" />
				<path
   class="st3"
   d="M285.6,295.5c-3.95-8.23-11.82-8.26-15.79,0"
   id="path1231" />
			</g>
		</g>
		<g
   id="g1249">
			<g
   id="g1241">
				<path
   class="st3"
   d="M222.45,295.55c3.95,8.11,11.82,8.14,15.79,0"
   id="path1237" />
				<path
   class="st3"
   d="M254.02,295.55c-3.95-8.23-11.82-8.26-15.79,0"
   id="path1239" />
			</g>
			<g
   id="g1247">
				<path
   class="st3"
   d="M190.88,295.55c3.95,8.11,11.82,8.14,15.79,0"
   id="path1243" />
				<path
   class="st3"
   d="M222.45,295.55c-3.95-8.23-11.82-8.26-15.79,0"
   id="path1245" />
			</g>
		</g>
	</g>
	<path
   class="st4"
   d="M180.23,296.54l9.78,4.82c0.79,0.39,1.71-0.19,1.71-1.06v-9.63c0-0.88-0.92-1.45-1.71-1.06l-9.78,4.82   C179.35,294.85,179.35,296.11,180.23,296.54z"
   id="path1253" />
</g>
<g
   id="g1301">
	<g
   id="g1297">
		<g
   id="g1281">
			<g
   id="g1261">
				<path
   class="st3"
   d="M221.08,194.49c-3.95-8.11-11.82-8.14-15.79,0"
   id="path1257" />
				<path
   class="st3"
   d="M189.51,194.49c3.95,8.23,11.82,8.26,15.79,0"
   id="path1259" />
			</g>
			<g
   id="g1267">
				<path
   class="st3"
   d="M252.65,194.49c-3.95-8.11-11.82-8.14-15.79,0"
   id="path1263" />
				<path
   class="st3"
   d="M221.08,194.49c3.95,8.23,11.82,8.26,15.79,0"
   id="path1265" />
			</g>
			<g
   id="g1273">
				<path
   class="st3"
   d="M284.22,194.49c-3.95-8.11-11.82-8.14-15.79,0"
   id="path1269" />
				<path
   class="st3"
   d="M252.65,194.49c3.95,8.23,11.82,8.26,15.79,0"
   id="path1271" />
			</g>
			<g
   id="g1279">
				<path
   class="st3"
   d="M315.79,194.49c-3.95-8.11-11.82-8.14-15.79,0"
   id="path1275" />
				<path
   class="st3"
   d="M284.22,194.49c3.95,8.23,11.82,8.26,15.79,0"
   id="path1277" />
			</g>
		</g>
		<g
   id="g1295">
			<g
   id="g1287">
				<path
   class="st3"
   d="M347.36,194.45c-3.95-8.11-11.82-8.14-15.79,0"
   id="path1283" />
				<path
   class="st3"
   d="M315.79,194.45c3.95,8.23,11.82,8.26,15.79,0"
   id="path1285" />
			</g>
			<g
   id="g1293">
				<path
   class="st3"
   d="M378.94,194.45c-3.95-8.11-11.82-8.14-15.79,0"
   id="path1289" />
				<path
   class="st3"
   d="M347.36,194.45c3.95,8.23,11.82,8.26,15.79,0"
   id="path1291" />
			</g>
		</g>
	</g>
	<path
   class="st4"
   d="M389.59,193.46l-9.78-4.82c-0.79-0.39-1.71,0.19-1.71,1.06v9.63c0,0.88,0.92,1.45,1.71,1.06l9.78-4.82   C390.47,195.14,390.47,193.89,389.59,193.46z"
   id="path1299" />
</g>
<g
   id="g1307">
	<path
   class="st2"
   d="M385.3,361.18c0,0,167.85-53.82,118.69-251.7"
   id="path1303" />
	<path
   d="M503.06,109.88l-2.54,10.6c-0.2,0.85,0.56,1.62,1.41,1.43l9.39-2.12c0.85-0.19,1.21-1.22,0.66-1.9l-6.85-8.48   C504.51,108.64,503.29,108.92,503.06,109.88z"
   id="path1305" />
</g>
<text
   xml:space="preserve"
   style="font-style:normal;font-variant:normal;font-weight:normal;font-stretch:normal;font-size:21.3333px;font-family:Courier;-inkscape-font-specification:'Courier, Normal';font-variant-ligatures:normal;font-variant-caps:normal;font-variant-numeric:normal;font-variant-east-asian:normal;fill:none;stroke:#000000;stroke-width:2.13543;stroke-linecap:square;stroke-miterlimit:4.1;paint-order:markers stroke fill;text-anchor:middle;text-align:center"
   x="170.87418"
   y="241.63812"
   id="text4690"><tspan
     id="tspan4688"
     x="153.81691"
     y="241.63812"
     sodipodi:role="line"
     style="font-style:normal;font-variant:normal;font-weight:normal;font-stretch:normal;font-size:21.3333px;font-family:Courier;-inkscape-font-specification:'Courier, Normal';font-variant-ligatures:normal;font-variant-caps:normal;font-variant-numeric:normal;font-variant-east-asian:normal;text-anchor:middle;text-align:center">$T$</tspan></text><text
   xml:space="preserve"
   style="font-style:normal;font-variant:normal;font-weight:normal;font-stretch:normal;font-size:21.3333px;font-family:Courier;-inkscape-font-specification:'Courier, Normal';font-variant-ligatures:normal;font-variant-caps:normal;font-variant-numeric:normal;font-variant-east-asian:normal;fill:none;stroke:#000000;stroke-width:2.13543;stroke-linecap:square;stroke-miterlimit:4.1;paint-order:markers stroke fill;text-anchor:middle;text-align:center"
   x="525.09039"
   y="91.881874"
   id="text4690-8"><tspan
     sodipodi:role="line"
     id="tspan4769"
     x="508.03314"
     y="91.881874">$i$</tspan></text><text
   xml:space="preserve"
   style="font-style:normal;font-variant:normal;font-weight:normal;font-stretch:normal;font-size:21.3333px;font-family:Courier;-inkscape-font-specification:'Courier, Normal';font-variant-ligatures:normal;font-variant-caps:normal;font-variant-numeric:normal;font-variant-east-asian:normal;text-align:center;text-anchor:middle;fill:none;stroke:#000000;stroke-width:2.13543;stroke-linecap:square;stroke-miterlimit:4.1;paint-order:markers stroke fill"
   x="404.05804"
   y="382.77234"
   id="text4690-8-7"><tspan
     sodipodi:role="line"
     id="tspan4769-2"
     x="404.05804"
     y="382.77234">$j$</tspan></text><text
   xml:space="preserve"
   style="font-style:normal;font-variant:normal;font-weight:normal;font-stretch:normal;font-size:21.3333px;font-family:Courier;-inkscape-font-specification:'Courier, Normal';font-variant-ligatures:normal;font-variant-caps:normal;font-variant-numeric:normal;font-variant-east-asian:normal;fill:none;stroke:#000000;stroke-width:2.13543;stroke-linecap:square;stroke-miterlimit:4.1;paint-order:markers stroke fill"
   x="95.950699"
   y="457.28375"
   id="text4690-8-6"><tspan
     sodipodi:role="line"
     id="tspan4769-5"
     x="95.950699"
     y="457.28375"
     dx="0 0 0 0 0 0 0">$\text{Bath}$</tspan></text><text
   xml:space="preserve"
   style="font-style:normal;font-variant:normal;font-weight:normal;font-stretch:normal;font-size:21.3333px;font-family:Courier;-inkscape-font-specification:'Courier, Normal';font-variant-ligatures:normal;font-variant-caps:normal;font-variant-numeric:normal;font-variant-east-asian:normal;fill:none;stroke:#000000;stroke-width:2.13543;stroke-linecap:square;stroke-miterlimit:4.1;paint-order:markers stroke fill"
   x="339.19873"
   y="457.14835"
   id="text4690-8-6-5"><tspan
     sodipodi:role="line"
     id="tspan4769-5-5"
     x="339.19873"
     y="457.14835"
     dx="0 0 0 0 0 0 0 0 0.82766998">$\text{System}$</tspan></text></svg>
