<?xml version="1.0" encoding="UTF-8" standalone="no"?>
<!-- Generator: Adobe Adobe Illustrator 24.2.0, SVG Export Plug-In . SVG Version: 6.00 Build 0)  -->

<svg
   version="1.1"
   id="svg10046"
   inkscape:version="1.2.2 (b0a8486, 2022-12-01)"
   sodipodi:docname="ST-MM.svg"
   x="0px"
   y="0px"
   width="600"
   height="245"
   viewBox="0 0 600 245"
   xml:space="preserve"
   xmlns:inkscape="http://www.inkscape.org/namespaces/inkscape"
   xmlns:sodipodi="http://sodipodi.sourceforge.net/DTD/sodipodi-0.dtd"
   xmlns:xlink="http://www.w3.org/1999/xlink"
   xmlns="http://www.w3.org/2000/svg"
   xmlns:svg="http://www.w3.org/2000/svg"><defs
   id="defs23192" />
<style
   type="text/css"
   id="style22896">
	
		.st0{clip-path:url(#SVGID_2_);fill:none;stroke:#000000;stroke-width:0.5;stroke-linecap:round;stroke-linejoin:round;stroke-miterlimit:1;stroke-opacity:0.1;}
	
		.st1{clip-path:url(#SVGID_4_);fill:none;stroke:#000000;stroke-width:0.5;stroke-linecap:round;stroke-linejoin:round;stroke-miterlimit:1;stroke-opacity:0.1;}
	
		.st2{clip-path:url(#SVGID_6_);fill:none;stroke:#000000;stroke-width:0.5;stroke-linecap:round;stroke-linejoin:round;stroke-miterlimit:1;stroke-opacity:0.1;}
	
		.st3{clip-path:url(#SVGID_8_);fill:none;stroke:#000000;stroke-width:0.5;stroke-linecap:round;stroke-linejoin:round;stroke-miterlimit:1;stroke-opacity:0.1;}
	
		.st4{clip-path:url(#SVGID_10_);fill:none;stroke:#000000;stroke-width:0.5;stroke-linecap:round;stroke-linejoin:round;stroke-miterlimit:1;stroke-opacity:0.1;}
	
		.st5{clip-path:url(#SVGID_12_);fill:none;stroke:#000000;stroke-width:0.5;stroke-linecap:round;stroke-linejoin:round;stroke-miterlimit:1;stroke-opacity:0.1;}
	.st6{clip-path:url(#SVGID_14_);fill:none;stroke:#000000;stroke-linecap:round;stroke-linejoin:round;stroke-miterlimit:1;}
	.st7{clip-path:url(#SVGID_16_);fill:none;stroke:#000000;stroke-linecap:round;stroke-linejoin:round;stroke-miterlimit:1;}
	.st8{clip-path:url(#SVGID_18_);fill:none;stroke:#000000;stroke-linecap:round;stroke-linejoin:round;stroke-miterlimit:1;}
	.st9{clip-path:url(#SVGID_20_);fill:none;stroke:#000000;stroke-linecap:round;stroke-linejoin:round;stroke-miterlimit:1;}
	.st10{clip-path:url(#SVGID_22_);fill:none;stroke:#000000;stroke-linecap:round;stroke-linejoin:round;stroke-miterlimit:1;}
	.st11{clip-path:url(#SVGID_24_);fill:none;stroke:#000000;stroke-linecap:round;stroke-linejoin:round;stroke-miterlimit:1;}
	.st12{clip-path:url(#SVGID_26_);fill:none;stroke:#000000;stroke-linecap:round;stroke-linejoin:round;stroke-miterlimit:1;}
	
		.st13{clip-path:url(#SVGID_28_);fill:none;stroke:#000000;stroke-width:0.5;stroke-linecap:round;stroke-linejoin:round;stroke-miterlimit:1;stroke-opacity:0.1;}
	
		.st14{clip-path:url(#SVGID_30_);fill:none;stroke:#000000;stroke-width:0.5;stroke-linecap:round;stroke-linejoin:round;stroke-miterlimit:1;stroke-opacity:0.1;}
	
		.st15{clip-path:url(#SVGID_32_);fill:none;stroke:#000000;stroke-width:0.5;stroke-linecap:round;stroke-linejoin:round;stroke-miterlimit:1;stroke-opacity:0.1;}
	
		.st16{clip-path:url(#SVGID_34_);fill:none;stroke:#000000;stroke-width:0.5;stroke-linecap:round;stroke-linejoin:round;stroke-miterlimit:1;stroke-opacity:0.1;}
	.st17{clip-path:url(#SVGID_36_);fill:none;stroke:#000000;stroke-linecap:round;stroke-linejoin:round;stroke-miterlimit:1;}
	.st18{clip-path:url(#SVGID_38_);fill:none;stroke:#000000;stroke-linecap:round;stroke-linejoin:round;stroke-miterlimit:1;}
	.st19{clip-path:url(#SVGID_40_);fill:none;stroke:#000000;stroke-linecap:round;stroke-linejoin:round;stroke-miterlimit:1;}
	.st20{clip-path:url(#SVGID_42_);fill:none;stroke:#000000;stroke-linecap:round;stroke-linejoin:round;stroke-miterlimit:1;}
	.st21{clip-path:url(#SVGID_44_);fill:none;stroke:#000000;stroke-linecap:round;stroke-linejoin:round;stroke-miterlimit:1;}
	
		.st22{clip-path:url(#SVGID_46_);fill:none;stroke:#009AF9;stroke-width:2;stroke-linecap:round;stroke-linejoin:round;stroke-miterlimit:1;}
	
		.st23{clip-path:url(#SVGID_48_);fill:none;stroke:#E26F46;stroke-width:2;stroke-linecap:round;stroke-linejoin:round;stroke-miterlimit:1;}
	
		.st24{clip-path:url(#SVGID_50_);fill:none;stroke:#3DA44D;stroke-width:2;stroke-linecap:round;stroke-linejoin:round;stroke-miterlimit:1;}
	
		.st25{clip-path:url(#SVGID_52_);fill:none;stroke:#C271D2;stroke-width:2;stroke-linecap:round;stroke-linejoin:round;stroke-miterlimit:1;}
	
		.st26{clip-path:url(#SVGID_54_);fill:none;stroke:#AC8D18;stroke-width:2;stroke-linecap:round;stroke-linejoin:round;stroke-miterlimit:1;}
	.st27{fill:#FFFFFF;stroke:#000000;stroke-linecap:square;stroke-miterlimit:1.025;}
	.st28{font-family:'CourierNewPSMT';}
	.st29{font-size:14.7022px;}
	.st30{fill:none;stroke:#009AF9;stroke-width:2.1623;stroke-linecap:round;stroke-linejoin:round;}
	.st31{fill:none;stroke:#E26F46;stroke-width:2.1623;stroke-linecap:round;stroke-linejoin:round;}
	.st32{fill:none;stroke:#3DA44D;stroke-width:2.1623;stroke-linecap:round;stroke-linejoin:round;}
	.st33{fill:none;stroke:#C271D2;stroke-width:2.1623;stroke-linecap:round;stroke-linejoin:round;}
	.st34{fill:none;stroke:#AC8D18;stroke-width:2.1623;stroke-linecap:round;stroke-linejoin:round;}
	.st35{font-size:13.3333px;}
	.st36{font-size:16.3023px;}
</style>
<sodipodi:namedview
   bordercolor="#eeeeee"
   borderopacity="1"
   id="namedview10048"
   inkscape:current-layer="svg10046"
   inkscape:cx="-11.628035"
   inkscape:cy="122.89237"
   inkscape:deskcolor="#505050"
   inkscape:lockguides="true"
   inkscape:pagecheckerboard="0"
   inkscape:pageopacity="0"
   inkscape:showpageshadow="0"
   inkscape:window-height="997"
   inkscape:window-maximized="1"
   inkscape:window-width="1680"
   inkscape:window-x="0"
   inkscape:window-y="25"
   inkscape:zoom="2.1929758"
   pagecolor="#505050"
   showgrid="false"
   showguides="true">
	</sodipodi:namedview>
<g
   id="g22906">
	<defs
   id="defs22900">
		<rect
   id="SVGID_1_"
   x="39"
   y="11.6"
   width="549.5"
   height="216.39999" />
	</defs>
	<clipPath
   id="SVGID_2_">
		<use
   xlink:href="#SVGID_1_"
   style="overflow:visible"
   id="use22902" />
	</clipPath>
	<line
   id="polyline9820"
   class="st0"
   x1="52"
   y1="227.89999"
   x2="52"
   y2="11.6"
   clip-path="url(#SVGID_2_)" />
</g>
<g
   id="g22915">
	<defs
   id="defs22909">
		<rect
   id="SVGID_3_"
   x="39"
   y="11.6"
   width="549.5"
   height="216.39999" />
	</defs>
	<clipPath
   id="SVGID_4_">
		<use
   xlink:href="#SVGID_3_"
   style="overflow:visible"
   id="use22911" />
	</clipPath>
	<line
   id="polyline9822"
   class="st1"
   x1="155.60001"
   y1="227.89999"
   x2="155.60001"
   y2="11.6"
   clip-path="url(#SVGID_4_)" />
</g>
<g
   id="g22924">
	<defs
   id="defs22918">
		<rect
   id="SVGID_5_"
   x="39"
   y="11.6"
   width="549.5"
   height="216.39999" />
	</defs>
	<clipPath
   id="SVGID_6_">
		<use
   xlink:href="#SVGID_5_"
   style="overflow:visible"
   id="use22920" />
	</clipPath>
	<line
   id="polyline9824"
   class="st2"
   x1="259.20001"
   y1="227.89999"
   x2="259.20001"
   y2="11.6"
   clip-path="url(#SVGID_6_)" />
</g>
<g
   id="g22933">
	<defs
   id="defs22927">
		<rect
   id="SVGID_7_"
   x="39"
   y="11.6"
   width="549.5"
   height="216.39999" />
	</defs>
	<clipPath
   id="SVGID_8_">
		<use
   xlink:href="#SVGID_7_"
   style="overflow:visible"
   id="use22929" />
	</clipPath>
	<line
   id="polyline9826"
   class="st3"
   x1="362.79999"
   y1="227.89999"
   x2="362.79999"
   y2="11.6"
   clip-path="url(#SVGID_8_)" />
</g>
<g
   id="g22942">
	<defs
   id="defs22936">
		<rect
   id="SVGID_9_"
   x="39"
   y="11.6"
   width="549.5"
   height="216.39999" />
	</defs>
	<clipPath
   id="SVGID_10_">
		<use
   xlink:href="#SVGID_9_"
   style="overflow:visible"
   id="use22938" />
	</clipPath>
	<line
   id="polyline9828"
   class="st4"
   x1="466.39999"
   y1="227.89999"
   x2="466.39999"
   y2="11.6"
   clip-path="url(#SVGID_10_)" />
</g>
<g
   id="g22951">
	<defs
   id="defs22945">
		<rect
   id="SVGID_11_"
   x="39"
   y="11.6"
   width="549.5"
   height="216.39999" />
	</defs>
	<clipPath
   id="SVGID_12_">
		<use
   xlink:href="#SVGID_11_"
   style="overflow:visible"
   id="use22947" />
	</clipPath>
	<line
   id="polyline9830"
   class="st5"
   x1="570.09998"
   y1="227.89999"
   x2="570.09998"
   y2="11.6"
   clip-path="url(#SVGID_12_)" />
</g>
<g
   id="g22960">
	<defs
   id="defs22954">
		<rect
   id="SVGID_13_"
   y="4.5"
   width="600"
   height="240.5"
   x="0" />
	</defs>
	<clipPath
   id="SVGID_14_">
		<use
   xlink:href="#SVGID_13_"
   style="overflow:visible"
   id="use22956" />
	</clipPath>
	<line
   id="polyline9832"
   class="st6"
   x1="39"
   y1="227.89999"
   x2="588.20001"
   y2="227.89999"
   clip-path="url(#SVGID_14_)" />
</g>
<g
   id="g22969">
	<defs
   id="defs22963">
		<rect
   id="SVGID_15_"
   y="4.5"
   width="600"
   height="240.5"
   x="0" />
	</defs>
	<clipPath
   id="SVGID_16_">
		<use
   xlink:href="#SVGID_15_"
   style="overflow:visible"
   id="use22965" />
	</clipPath>
	<line
   id="polyline9834"
   class="st7"
   x1="52"
   y1="227.89999"
   x2="52"
   y2="225.10001"
   clip-path="url(#SVGID_16_)" />
</g>
<g
   id="g22978">
	<defs
   id="defs22972">
		<rect
   id="SVGID_17_"
   y="4.5"
   width="600"
   height="240.5"
   x="0" />
	</defs>
	<clipPath
   id="SVGID_18_">
		<use
   xlink:href="#SVGID_17_"
   style="overflow:visible"
   id="use22974" />
	</clipPath>
	<line
   id="polyline9836"
   class="st8"
   x1="155.60001"
   y1="227.89999"
   x2="155.60001"
   y2="225.10001"
   clip-path="url(#SVGID_18_)" />
</g>
<g
   id="g22987">
	<defs
   id="defs22981">
		<rect
   id="SVGID_19_"
   y="4.5"
   width="600"
   height="240.5"
   x="0" />
	</defs>
	<clipPath
   id="SVGID_20_">
		<use
   xlink:href="#SVGID_19_"
   style="overflow:visible"
   id="use22983" />
	</clipPath>
	<line
   id="polyline9838"
   class="st9"
   x1="259.20001"
   y1="227.89999"
   x2="259.20001"
   y2="225.10001"
   clip-path="url(#SVGID_20_)" />
</g>
<g
   id="g22996">
	<defs
   id="defs22990">
		<rect
   id="SVGID_21_"
   y="4.5"
   width="600"
   height="240.5"
   x="0" />
	</defs>
	<clipPath
   id="SVGID_22_">
		<use
   xlink:href="#SVGID_21_"
   style="overflow:visible"
   id="use22992" />
	</clipPath>
	<line
   id="polyline9840"
   class="st10"
   x1="362.79999"
   y1="227.89999"
   x2="362.79999"
   y2="225.10001"
   clip-path="url(#SVGID_22_)" />
</g>
<g
   id="g23005">
	<defs
   id="defs22999">
		<rect
   id="SVGID_23_"
   y="4.5"
   width="600"
   height="240.5"
   x="0" />
	</defs>
	<clipPath
   id="SVGID_24_">
		<use
   xlink:href="#SVGID_23_"
   style="overflow:visible"
   id="use23001" />
	</clipPath>
	<line
   id="polyline9842"
   class="st11"
   x1="466.39999"
   y1="227.89999"
   x2="466.39999"
   y2="225.10001"
   clip-path="url(#SVGID_24_)" />
</g>
<g
   id="g23014">
	<defs
   id="defs23008">
		<rect
   id="SVGID_25_"
   y="4.5"
   width="600"
   height="240.5"
   x="0" />
	</defs>
	<clipPath
   id="SVGID_26_">
		<use
   xlink:href="#SVGID_25_"
   style="overflow:visible"
   id="use23010" />
	</clipPath>
	<line
   id="polyline9844"
   class="st12"
   x1="570.09998"
   y1="227.89999"
   x2="570.09998"
   y2="225.10001"
   clip-path="url(#SVGID_26_)" />
</g>
<g
   id="g23023">
	<defs
   id="defs23017">
		<rect
   id="SVGID_27_"
   x="39"
   y="11.6"
   width="549.5"
   height="216.39999" />
	</defs>
	<clipPath
   id="SVGID_28_">
		<use
   xlink:href="#SVGID_27_"
   style="overflow:visible"
   id="use23019" />
	</clipPath>
	<line
   id="polyline9866"
   class="st13"
   x1="39"
   y1="185.39999"
   x2="588.20001"
   y2="185.39999"
   clip-path="url(#SVGID_28_)" />
</g>
<g
   id="g23032">
	<defs
   id="defs23026">
		<rect
   id="SVGID_29_"
   x="39"
   y="11.6"
   width="549.5"
   height="216.39999" />
	</defs>
	<clipPath
   id="SVGID_30_">
		<use
   xlink:href="#SVGID_29_"
   style="overflow:visible"
   id="use23028" />
	</clipPath>
	<line
   id="polyline9868"
   class="st14"
   x1="39"
   y1="131"
   x2="588.20001"
   y2="131"
   clip-path="url(#SVGID_30_)" />
</g>
<g
   id="g23041">
	<defs
   id="defs23035">
		<rect
   id="SVGID_31_"
   x="39"
   y="11.6"
   width="549.5"
   height="216.39999" />
	</defs>
	<clipPath
   id="SVGID_32_">
		<use
   xlink:href="#SVGID_31_"
   style="overflow:visible"
   id="use23037" />
	</clipPath>
	<line
   id="polyline9870"
   class="st15"
   x1="39"
   y1="76.599998"
   x2="588.20001"
   y2="76.599998"
   clip-path="url(#SVGID_32_)" />
</g>
<g
   id="g23050">
	<defs
   id="defs23044">
		<rect
   id="SVGID_33_"
   x="39"
   y="11.6"
   width="549.5"
   height="216.39999" />
	</defs>
	<clipPath
   id="SVGID_34_">
		<use
   xlink:href="#SVGID_33_"
   style="overflow:visible"
   id="use23046" />
	</clipPath>
	<line
   id="polyline9872"
   class="st16"
   x1="39"
   y1="22.200001"
   x2="588.20001"
   y2="22.200001"
   clip-path="url(#SVGID_34_)" />
</g>
<g
   id="g23059">
	<defs
   id="defs23053">
		<rect
   id="SVGID_35_"
   y="4.5"
   width="600"
   height="240.5"
   x="0" />
	</defs>
	<clipPath
   id="SVGID_36_">
		<use
   xlink:href="#SVGID_35_"
   style="overflow:visible"
   id="use23055" />
	</clipPath>
	<line
   id="polyline9874"
   class="st17"
   x1="39"
   y1="227.89999"
   x2="39"
   y2="11.6"
   clip-path="url(#SVGID_36_)" />
</g>
<g
   id="g23068">
	<defs
   id="defs23062">
		<rect
   id="SVGID_37_"
   y="4.5"
   width="600"
   height="240.5"
   x="0" />
	</defs>
	<clipPath
   id="SVGID_38_">
		<use
   xlink:href="#SVGID_37_"
   style="overflow:visible"
   id="use23064" />
	</clipPath>
	<line
   id="polyline9876"
   class="st18"
   x1="39"
   y1="185.39999"
   x2="43.799999"
   y2="185.39999"
   clip-path="url(#SVGID_38_)" />
</g>
<g
   id="g23077">
	<defs
   id="defs23071">
		<rect
   id="SVGID_39_"
   y="4.5"
   width="600"
   height="240.5"
   x="0" />
	</defs>
	<clipPath
   id="SVGID_40_">
		<use
   xlink:href="#SVGID_39_"
   style="overflow:visible"
   id="use23073" />
	</clipPath>
	<line
   id="polyline9878"
   class="st19"
   x1="39"
   y1="131"
   x2="43.799999"
   y2="131"
   clip-path="url(#SVGID_40_)" />
</g>
<g
   id="g23086">
	<defs
   id="defs23080">
		<rect
   id="SVGID_41_"
   y="4.5"
   width="600"
   height="240.5"
   x="0" />
	</defs>
	<clipPath
   id="SVGID_42_">
		<use
   xlink:href="#SVGID_41_"
   style="overflow:visible"
   id="use23082" />
	</clipPath>
	<line
   id="polyline9880"
   class="st20"
   x1="39"
   y1="76.599998"
   x2="43.799999"
   y2="76.599998"
   clip-path="url(#SVGID_42_)" />
</g>
<g
   id="g23095">
	<defs
   id="defs23089">
		<rect
   id="SVGID_43_"
   y="4.5"
   width="600"
   height="240.5"
   x="0" />
	</defs>
	<clipPath
   id="SVGID_44_">
		<use
   xlink:href="#SVGID_43_"
   style="overflow:visible"
   id="use23091" />
	</clipPath>
	<line
   id="polyline9882"
   class="st21"
   x1="39"
   y1="22.200001"
   x2="43.799999"
   y2="22.200001"
   clip-path="url(#SVGID_44_)" />
</g>
<g
   id="g23104">
	<defs
   id="defs23098">
		<rect
   id="SVGID_45_"
   x="39"
   y="11.6"
   width="549.5"
   height="216.39999" />
	</defs>
	<clipPath
   id="SVGID_46_">
		<use
   xlink:href="#SVGID_45_"
   style="overflow:visible"
   id="use23100" />
	</clipPath>
	<polyline
   id="polyline9908"
   class="st22"
   points="54.6,17.8 57.2,39.4 59.8,58.3 62.3,74.6 64.9,88.8 67.5,101.2 70.1,112    72.7,121.5 75.3,129.7 77.9,136.9 80.5,143.1 83.1,148.6 85.7,153.4 88.2,157.5 90.8,161.2 93.4,164.3 96,167.1 98.6,169.5    101.2,171.6 103.8,173.4 106.4,175 109,176.4 111.6,177.6 114.1,178.6 116.7,179.5 119.3,180.3 121.9,181 124.5,181.6 127.1,182.1    129.7,182.6 132.3,182.9 134.9,183.3 137.5,183.6 140.1,183.8 142.6,184 145.2,184.2 147.8,184.4 150.4,184.5 153,184.6    155.6,184.7 158.2,184.8 160.8,184.9 163.4,185 166,185 168.5,185.1 171.1,185.1 173.7,185.2 176.3,185.2 178.9,185.2 181.5,185.2    184.1,185.3 186.7,185.3 189.3,185.3 191.9,185.3 194.5,185.3 197,185.3 199.6,185.3 202.2,185.3 204.8,185.3 207.4,185.3    210,185.3 212.6,185.4 215.2,185.4 217.8,185.4 220.4,185.4 222.9,185.4 225.5,185.4 228.1,185.4 230.7,185.4 233.3,185.4    235.9,185.4 238.5,185.4 241.1,185.4 243.7,185.4 246.3,185.4 248.8,185.4 251.4,185.4 254,185.4 256.6,185.4 259.2,185.4    261.8,185.4 264.4,185.4 267,185.4 269.6,185.4 272.2,185.4 274.8,185.4 277.3,185.4 279.9,185.4 282.5,185.4 285.1,185.4    287.7,185.4 290.3,185.4 292.9,185.4 295.5,185.4 298.1,185.4 300.7,185.4 303.2,185.4 305.8,185.4 308.4,185.4 311,185.4    313.6,185.4 316.2,185.4 318.8,185.4 321.4,185.4 324,185.4 326.6,185.4 329.1,185.4 331.7,185.4 334.3,185.4 336.9,185.4    339.5,185.4 342.1,185.4 344.7,185.4 347.3,185.4 349.9,185.4 352.5,185.4 355.1,185.4 357.6,185.4 360.2,185.4 362.8,185.4    365.4,185.4 368,185.4 370.6,185.4 373.2,185.4 375.8,185.4 378.4,185.4 381,185.4 383.5,185.4 386.1,185.4 388.7,185.4    391.3,185.4 393.9,185.4 396.5,185.4 399.1,185.4 401.7,185.4 404.3,185.4 406.9,185.4 409.5,185.4 412,185.4 414.6,185.4    417.2,185.4 419.8,185.4 422.4,185.4 425,185.4 427.6,185.4 430.2,185.4 432.8,185.4 435.4,185.4 437.9,185.4 440.5,185.4    443.1,185.4 445.7,185.4 448.3,185.4 450.9,185.4 453.5,185.4 456.1,185.4 458.7,185.4 461.3,185.4 463.9,185.4 466.4,185.4    469,185.4 471.6,185.4 474.2,185.4 476.8,185.4 479.4,185.4 482,185.4 484.6,185.4 487.2,185.4 489.8,185.4 492.3,185.4    494.9,185.4 497.5,185.4 500.1,185.4 502.7,185.4 505.3,185.4 507.9,185.4 510.5,185.4 513.1,185.4 515.7,185.4 518.2,185.4    520.8,185.4 523.4,185.4 526,185.4 528.6,185.4 531.2,185.4 533.8,185.4 536.4,185.4 539,185.4 541.6,185.4 544.2,185.4    546.7,185.4 549.3,185.4 551.9,185.4 554.5,185.4 557.1,185.4 559.7,185.4 562.3,185.4 564.9,185.4 567.5,185.4 570.1,185.4    572.6,185.4  "
   clip-path="url(#SVGID_46_)" />
</g>
<g
   id="g23113">
	<defs
   id="defs23107">
		<rect
   id="SVGID_47_"
   x="39"
   y="11.6"
   width="549.5"
   height="216.39999" />
	</defs>
	<clipPath
   id="SVGID_48_">
		<use
   xlink:href="#SVGID_47_"
   style="overflow:visible"
   id="use23109" />
	</clipPath>
	<polyline
   id="polyline9910"
   class="st23"
   points="54.6,185.4 57.2,194.9 59.8,202.3 62.3,208.2 64.9,212.7 67.5,216.1 70.1,218.5    72.7,220.2 75.3,221.2 77.9,221.7 80.5,221.8 83.1,221.6 85.7,221 88.2,220.3 90.8,219.3 93.4,218.3 96,217.1 98.6,215.9    101.2,214.6 103.8,213.3 106.4,212 109,210.6 111.6,209.3 114.1,208.1 116.7,206.8 119.3,205.6 121.9,204.5 124.5,203.4    127.1,202.3 129.7,201.3 132.3,200.3 134.9,199.3 137.5,198.5 140.1,197.6 142.6,196.8 145.2,196.1 147.8,195.4 150.4,194.7    153,194.1 155.6,193.5 158.2,193 160.8,192.4 163.4,192 166,191.5 168.5,191.1 171.1,190.7 173.7,190.3 176.3,190 178.9,189.7    181.5,189.4 184.1,189.1 186.7,188.8 189.3,188.6 191.9,188.3 194.5,188.1 197,187.9 199.6,187.8 202.2,187.6 204.8,187.4    207.4,187.3 210,187.1 212.6,187 215.2,186.9 217.8,186.8 220.4,186.7 222.9,186.6 225.5,186.5 228.1,186.4 230.7,186.3    233.3,186.3 235.9,186.2 238.5,186.2 241.1,186.1 243.7,186 246.3,186 248.8,186 251.4,185.9 254,185.9 256.6,185.8 259.2,185.8    261.8,185.8 264.4,185.7 267,185.7 269.6,185.7 272.2,185.7 274.8,185.6 277.3,185.6 279.9,185.6 282.5,185.6 285.1,185.6    287.7,185.6 290.3,185.5 292.9,185.5 295.5,185.5 298.1,185.5 300.7,185.5 303.2,185.5 305.8,185.5 308.4,185.5 311,185.5    313.6,185.5 316.2,185.5 318.8,185.5 321.4,185.4 324,185.4 326.6,185.4 329.1,185.4 331.7,185.4 334.3,185.4 336.9,185.4    339.5,185.4 342.1,185.4 344.7,185.4 347.3,185.4 349.9,185.4 352.5,185.4 355.1,185.4 357.6,185.4 360.2,185.4 362.8,185.4    365.4,185.4 368,185.4 370.6,185.4 373.2,185.4 375.8,185.4 378.4,185.4 381,185.4 383.5,185.4 386.1,185.4 388.7,185.4    391.3,185.4 393.9,185.4 396.5,185.4 399.1,185.4 401.7,185.4 404.3,185.4 406.9,185.4 409.5,185.4 412,185.4 414.6,185.4    417.2,185.4 419.8,185.4 422.4,185.4 425,185.4 427.6,185.4 430.2,185.4 432.8,185.4 435.4,185.4 437.9,185.4 440.5,185.4    443.1,185.4 445.7,185.4 448.3,185.4 450.9,185.4 453.5,185.4 456.1,185.4 458.7,185.4 461.3,185.4 463.9,185.4 466.4,185.4    469,185.4 471.6,185.4 474.2,185.4 476.8,185.4 479.4,185.4 482,185.4 484.6,185.4 487.2,185.4 489.8,185.4 492.3,185.4    494.9,185.4 497.5,185.4 500.1,185.4 502.7,185.4 505.3,185.4 507.9,185.4 510.5,185.4 513.1,185.4 515.7,185.4 518.2,185.4    520.8,185.4 523.4,185.4 526,185.4 528.6,185.4 531.2,185.4 533.8,185.4 536.4,185.4 539,185.4 541.6,185.4 544.2,185.4    546.7,185.4 549.3,185.4 551.9,185.4 554.5,185.4 557.1,185.4 559.7,185.4 562.3,185.4 564.9,185.4 567.5,185.4 570.1,185.4    572.6,185.4  "
   clip-path="url(#SVGID_48_)" />
</g>
<g
   id="g23122">
	<defs
   id="defs23116">
		<rect
   id="SVGID_49_"
   x="39"
   y="11.6"
   width="549.5"
   height="216.39999" />
	</defs>
	<clipPath
   id="SVGID_50_">
		<use
   xlink:href="#SVGID_49_"
   style="overflow:visible"
   id="use23118" />
	</clipPath>
	<polyline
   id="polyline9912"
   class="st24"
   points="54.6,185.4 57.2,185.4 59.8,185.4 62.3,185.4 64.9,185.4 67.5,185.4 70.1,185.4    72.7,185.4 75.3,185.4 77.9,185.4 80.5,185.4 83.1,185.4 85.7,185.4 88.2,185.4 90.8,185.4 93.4,185.4 96,185.4 98.6,185.4    101.2,185.4 103.8,185.4 106.4,185.4 109,185.4 111.6,185.4 114.1,185.4 116.7,185.4 119.3,185.4 121.9,185.4 124.5,185.4    127.1,185.4 129.7,185.4 132.3,185.4 134.9,185.4 137.5,185.4 140.1,185.4 142.6,185.4 145.2,185.4 147.8,185.4 150.4,185.4    153,185.4 155.6,185.4 158.2,185.4 160.8,185.4 163.4,185.4 166,185.4 168.5,185.4 171.1,185.4 173.7,185.4 176.3,185.4    178.9,185.4 181.5,185.4 184.1,185.4 186.7,185.4 189.3,185.4 191.9,185.4 194.5,185.4 197,185.4 199.6,185.4 202.2,185.4    204.8,185.4 207.4,185.4 210,185.4 212.6,185.4 215.2,185.4 217.8,185.4 220.4,185.4 222.9,185.4 225.5,185.4 228.1,185.4    230.7,185.4 233.3,185.4 235.9,185.4 238.5,185.4 241.1,185.4 243.7,185.4 246.3,185.4 248.8,185.4 251.4,185.4 254,185.4    256.6,185.4 259.2,185.4 261.8,185.4 264.4,185.4 267,185.4 269.6,185.4 272.2,185.4 274.8,185.4 277.3,185.4 279.9,185.4    282.5,185.4 285.1,185.4 287.7,185.4 290.3,185.4 292.9,185.4 295.5,185.4 298.1,185.4 300.7,185.4 303.2,185.4 305.8,185.4    308.4,185.4 311,185.4 313.6,185.4 316.2,185.4 318.8,185.4 321.4,185.4 324,185.4 326.6,185.4 329.1,185.4 331.7,185.4    334.3,185.4 336.9,185.4 339.5,185.4 342.1,185.4 344.7,185.4 347.3,185.4 349.9,185.4 352.5,185.4 355.1,185.4 357.6,185.4    360.2,185.4 362.8,185.4 365.4,185.4 368,185.4 370.6,185.4 373.2,185.4 375.8,185.4 378.4,185.4 381,185.4 383.5,185.4    386.1,185.4 388.7,185.4 391.3,185.4 393.9,185.4 396.5,185.4 399.1,185.4 401.7,185.4 404.3,185.4 406.9,185.4 409.5,185.4    412,185.4 414.6,185.4 417.2,185.4 419.8,185.4 422.4,185.4 425,185.4 427.6,185.4 430.2,185.4 432.8,185.4 435.4,185.4    437.9,185.4 440.5,185.4 443.1,185.4 445.7,185.4 448.3,185.4 450.9,185.4 453.5,185.4 456.1,185.4 458.7,185.4 461.3,185.4    463.9,185.4 466.4,185.4 469,185.4 471.6,185.4 474.2,185.4 476.8,185.4 479.4,185.4 482,185.4 484.6,185.4 487.2,185.4    489.8,185.4 492.3,185.4 494.9,185.4 497.5,185.4 500.1,185.4 502.7,185.4 505.3,185.4 507.9,185.4 510.5,185.4 513.1,185.4    515.7,185.4 518.2,185.4 520.8,185.4 523.4,185.4 526,185.4 528.6,185.4 531.2,185.4 533.8,185.4 536.4,185.4 539,185.4    541.6,185.4 544.2,185.4 546.7,185.4 549.3,185.4 551.9,185.4 554.5,185.4 557.1,185.4 559.7,185.4 562.3,185.4 564.9,185.4    567.5,185.4 570.1,185.4 572.6,185.4  "
   clip-path="url(#SVGID_50_)" />
</g>
<g
   id="g23131">
	<defs
   id="defs23125">
		<rect
   id="SVGID_51_"
   x="39"
   y="11.6"
   width="549.5"
   height="216.39999" />
	</defs>
	<clipPath
   id="SVGID_52_">
		<use
   xlink:href="#SVGID_51_"
   style="overflow:visible"
   id="use23127" />
	</clipPath>
	<polyline
   id="polyline9914"
   class="st25"
   points="54.6,17.8 57.2,30 59.8,41.3 62.3,51.8 64.9,61.5 67.5,70.5 70.1,78.9 72.7,86.7    75.3,93.8 77.9,100.5 80.5,106.7 83.1,112.4 85.7,117.7 88.2,122.7 90.8,127.2 93.4,131.5 96,135.4 98.6,139 101.2,142.4    103.8,145.5 106.4,148.4 109,151.1 111.6,153.6 114.1,155.9 116.7,158.1 119.3,160.1 121.9,161.9 124.5,163.6 127.1,165.2    129.7,166.7 132.3,168 134.9,169.3 137.5,170.5 140.1,171.6 142.6,172.6 145.2,173.5 147.8,174.4 150.4,175.2 153,175.9    155.6,176.6 158.2,177.2 160.8,177.8 163.4,178.4 166,178.9 168.5,179.4 171.1,179.8 173.7,180.2 176.3,180.6 178.9,180.9    181.5,181.3 184.1,181.6 186.7,181.8 189.3,182.1 191.9,182.3 194.5,182.6 197,182.8 199.6,182.9 202.2,183.1 204.8,183.3    207.4,183.4 210,183.6 212.6,183.7 215.2,183.8 217.8,183.9 220.4,184.1 222.9,184.1 225.5,184.2 228.1,184.3 230.7,184.4    233.3,184.5 235.9,184.5 238.5,184.6 241.1,184.7 243.7,184.7 246.3,184.8 248.8,184.8 251.4,184.8 254,184.9 256.6,184.9    259.2,185 261.8,185 264.4,185 267,185 269.6,185.1 272.2,185.1 274.8,185.1 277.3,185.1 279.9,185.1 282.5,185.2 285.1,185.2    287.7,185.2 290.3,185.2 292.9,185.2 295.5,185.2 298.1,185.2 300.7,185.2 303.2,185.3 305.8,185.3 308.4,185.3 311,185.3    313.6,185.3 316.2,185.3 318.8,185.3 321.4,185.3 324,185.3 326.6,185.3 329.1,185.3 331.7,185.3 334.3,185.3 336.9,185.3    339.5,185.3 342.1,185.3 344.7,185.3 347.3,185.3 349.9,185.3 352.5,185.3 355.1,185.4 357.6,185.4 360.2,185.4 362.8,185.4    365.4,185.4 368,185.4 370.6,185.4 373.2,185.4 375.8,185.4 378.4,185.4 381,185.4 383.5,185.4 386.1,185.4 388.7,185.4    391.3,185.4 393.9,185.4 396.5,185.4 399.1,185.4 401.7,185.4 404.3,185.4 406.9,185.4 409.5,185.4 412,185.4 414.6,185.4    417.2,185.4 419.8,185.4 422.4,185.4 425,185.4 427.6,185.4 430.2,185.4 432.8,185.4 435.4,185.4 437.9,185.4 440.5,185.4    443.1,185.4 445.7,185.4 448.3,185.4 450.9,185.4 453.5,185.4 456.1,185.4 458.7,185.4 461.3,185.4 463.9,185.4 466.4,185.4    469,185.4 471.6,185.4 474.2,185.4 476.8,185.4 479.4,185.4 482,185.4 484.6,185.4 487.2,185.4 489.8,185.4 492.3,185.4    494.9,185.4 497.5,185.4 500.1,185.4 502.7,185.4 505.3,185.4 507.9,185.4 510.5,185.4 513.1,185.4 515.7,185.4 518.2,185.4    520.8,185.4 523.4,185.4 526,185.4 528.6,185.4 531.2,185.4 533.8,185.4 536.4,185.4 539,185.4 541.6,185.4 544.2,185.4    546.7,185.4 549.3,185.4 551.9,185.4 554.5,185.4 557.1,185.4 559.7,185.4 562.3,185.4 564.9,185.4 567.5,185.4 570.1,185.4    572.6,185.4  "
   clip-path="url(#SVGID_52_)" />
</g>
<g
   id="g23140">
	<defs
   id="defs23134">
		<rect
   id="SVGID_53_"
   x="39"
   y="11.6"
   width="549.5"
   height="216.39999" />
	</defs>
	<clipPath
   id="SVGID_54_">
		<use
   xlink:href="#SVGID_53_"
   style="overflow:visible"
   id="use23136" />
	</clipPath>
	<polyline
   id="polyline9916"
   class="st26"
   points="54.6,34.3 57.2,53.9 59.8,70.9 62.3,85.8 64.9,98.7 67.5,110 70.1,119.8    72.7,128.4 75.3,135.8 77.9,142.3 80.5,148 83.1,152.9 85.7,157.2 88.2,160.9 90.8,164.2 93.4,167 96,169.5 98.6,171.6    101.2,173.5 103.8,175.1 106.4,176.4 109,177.7 111.6,178.7 114.1,179.6 116.7,180.4 119.3,181.1 121.9,181.7 124.5,182.2    127.1,182.6 129.7,183 132.3,183.3 134.9,183.6 137.5,183.8 140.1,184.1 142.6,184.2 145.2,184.4 147.8,184.5 150.4,184.6    153,184.7 155.6,184.8 158.2,184.9 160.8,185 163.4,185 166,185.1 168.5,185.1 171.1,185.2 173.7,185.2 176.3,185.2 178.9,185.2    181.5,185.3 184.1,185.3 186.7,185.3 189.3,185.3 191.9,185.3 194.5,185.3 197,185.3 199.6,185.3 202.2,185.3 204.8,185.3    207.4,185.3 210,185.4 212.6,185.4 215.2,185.4 217.8,185.4 220.4,185.4 222.9,185.4 225.5,185.4 228.1,185.4 230.7,185.4    233.3,185.4 235.9,185.4 238.5,185.4 241.1,185.4 243.7,185.4 246.3,185.4 248.8,185.4 251.4,185.4 254,185.4 256.6,185.4    259.2,185.4 261.8,185.4 264.4,185.4 267,185.4 269.6,185.4 272.2,185.4 274.8,185.4 277.3,185.4 279.9,185.4 282.5,185.4    285.1,185.4 287.7,185.4 290.3,185.4 292.9,185.4 295.5,185.4 298.1,185.4 300.7,185.4 303.2,185.4 305.8,185.4 308.4,185.4    311,185.4 313.6,185.4 316.2,185.4 318.8,185.4 321.4,185.4 324,185.4 326.6,185.4 329.1,185.4 331.7,185.4 334.3,185.4    336.9,185.4 339.5,185.4 342.1,185.4 344.7,185.4 347.3,185.4 349.9,185.4 352.5,185.4 355.1,185.4 357.6,185.4 360.2,185.4    362.8,185.4 365.4,185.4 368,185.4 370.6,185.4 373.2,185.4 375.8,185.4 378.4,185.4 381,185.4 383.5,185.4 386.1,185.4    388.7,185.4 391.3,185.4 393.9,185.4 396.5,185.4 399.1,185.4 401.7,185.4 404.3,185.4 406.9,185.4 409.5,185.4 412,185.4    414.6,185.4 417.2,185.4 419.8,185.4 422.4,185.4 425,185.4 427.6,185.4 430.2,185.4 432.8,185.4 435.4,185.4 437.9,185.4    440.5,185.4 443.1,185.4 445.7,185.4 448.3,185.4 450.9,185.4 453.5,185.4 456.1,185.4 458.7,185.4 461.3,185.4 463.9,185.4    466.4,185.4 469,185.4 471.6,185.4 474.2,185.4 476.8,185.4 479.4,185.4 482,185.4 484.6,185.4 487.2,185.4 489.8,185.4    492.3,185.4 494.9,185.4 497.5,185.4 500.1,185.4 502.7,185.4 505.3,185.4 507.9,185.4 510.5,185.4 513.1,185.4 515.7,185.4    518.2,185.4 520.8,185.4 523.4,185.4 526,185.4 528.6,185.4 531.2,185.4 533.8,185.4 536.4,185.4 539,185.4 541.6,185.4    544.2,185.4 546.7,185.4 549.3,185.4 551.9,185.4 554.5,185.4 557.1,185.4 559.7,185.4 562.3,185.4 564.9,185.4 567.5,185.4    570.1,185.4 572.6,185.4  "
   clip-path="url(#SVGID_54_)" />
</g>
<rect
   id="rect13529"
   x="460.20001"
   y="19.9"
   class="st27"
   width="128.3"
   height="149.39999" />
<g
   id="g12840"
   transform="matrix(1.9102105,0,0,1.9102105,-511.45382,-174.53801)">
	<text
   class="st28 st29"
   id="text23143"
   x="552.41022"
   y="144.51559"
   style="stroke-width:0.5235">$\dot{w}$</text>
	<text
   class="st28 st29"
   id="text23145"
   x="551.97668"
   y="159.7084"
   style="stroke-width:0.5235">$\dot{S}^{bath}$</text>
	<g
   id="g23148"
   transform="matrix(0.89494085,0,0,1,53.66421,0)"
   style="stroke-width:1.05707">
		<line
   id="polyline9922"
   class="st30"
   x1="510.79999"
   y1="113.3"
   x2="551.70001"
   y2="113.3" />
	</g>
	<g
   id="g23151"
   transform="matrix(0.89494085,0,0,1,53.66421,0)"
   style="stroke-width:1.05707">
		<line
   id="polyline9958"
   class="st31"
   x1="510.79999"
   y1="127.8"
   x2="551.70001"
   y2="127.8" />
	</g>
	<g
   id="g23154"
   transform="matrix(0.89494085,0,0,1,53.66421,0)"
   style="stroke-width:1.05707">
		<line
   id="polyline9988"
   class="st32"
   x1="510.79999"
   y1="142.39999"
   x2="551.70001"
   y2="142.39999" />
	</g>
	<g
   id="g23157"
   transform="matrix(0.89494085,0,0,1,53.66421,0)"
   style="stroke-width:1.05707">
		<line
   id="polyline9998"
   class="st33"
   x1="510.79999"
   y1="156.89999"
   x2="551.70001"
   y2="156.89999" />
	</g>
	<g
   id="g23160"
   transform="matrix(0.89494085,0,0,1,53.66421,0)"
   style="stroke-width:1.05707">
		<line
   id="polyline10024"
   class="st34"
   x1="510.79999"
   y1="171.39999"
   x2="551.70001"
   y2="171.39999" />
	</g>
	<text
   class="st28 st29"
   id="text23162"
   x="552.83911"
   y="114.9742"
   style="stroke-width:0.5235">$\dot{S}^{tot}$</text>
	<text
   class="st28 st29"
   id="text23164"
   x="552.95459"
   y="129.7972"
   style="stroke-width:0.5235">$\dot{S}^{sys}$</text>
	<text
   class="st28 st29"
   id="text23166"
   x="551.86218"
   y="174.0567"
   style="stroke-width:0.5235">$\dot{F}$</text>
</g>
<text
   class="st28 st35"
   id="text23169"
   x="50.540569"
   y="253.3447"
   style="text-align:center;text-anchor:middle">{\small 0}</text>
<text
   class="st28 st35"
   id="text23171"
   x="154.24226"
   y="253.3447"
   style="text-align:center;text-anchor:middle">{\small 5}</text>
<text
   class="st28 st35"
   id="text23173"
   x="258.53323"
   y="253.3447"
   style="text-align:center;text-anchor:middle">{\small 10}</text>
<text
   class="st28 st35"
   id="text23175"
   x="361.12363"
   y="253.3447"
   style="text-align:center;text-anchor:middle">{\small 15}</text>
<text
   class="st28 st35"
   id="text23177"
   x="466.07574"
   y="253.3447"
   style="text-align:center;text-anchor:middle">{\small 20}</text>
<text
   class="st28 st35"
   id="text23179"
   x="568.35602"
   y="253.3447"
   style="text-align:center;text-anchor:middle">{\small 25}</text>
<text
   class="st28 st35"
   id="text23181"
   x="298.6611"
   y="287.01169">t(s)</text>
<text
   transform="scale(0.90437827,1.105732)"
   class="st28 st36"
   id="text23183"
   x="36.262379"
   y="26.751598"
   style="text-align:end;text-anchor:end;stroke-width:0.904378">{\small 0.3}</text>
<text
   transform="scale(0.90437827,1.105732)"
   class="st28 st36"
   id="text23185"
   x="36.262932"
   y="75.58712"
   style="text-align:end;text-anchor:end;stroke-width:0.904378">{\small 0.2}</text>
<text
   transform="scale(0.90437827,1.105732)"
   class="st28 st36"
   id="text23187"
   x="36.061024"
   y="124.42445"
   style="text-align:end;text-anchor:end;stroke-width:0.904378">{\small 0.1}</text><text
   transform="matrix(0,-0.90437827,1.105732,0,0,0)"
   class="st28 st36"
   id="text23187-3"
   x="-125.59412"
   y="-4.5759869"
   style="font-size:16.3023px;font-family:CourierNewPSMT;text-align:center;text-anchor:middle;stroke-width:0.904378">{\small $k_B T$}</text>
<text
   transform="scale(0.90437827,1.105732)"
   class="st28 st36"
   id="text23189"
   x="36.262379"
   y="173.25816"
   style="text-align:end;text-anchor:end;stroke-width:0.904378">{\small 0.0}</text>
</svg>
