<?xml version="1.0" encoding="utf-8"?>
<svg xmlns="http://www.w3.org/2000/svg" xmlns:xlink="http://www.w3.org/1999/xlink" width="600" height="400" viewBox="0 0 2400 1600">
<defs>
  <clipPath id="clip530">
    <rect x="0" y="0" width="2400" height="1600"/>
  </clipPath>
</defs>
<path clip-path="url(#clip530)" d="
M0 1600 L2400 1600 L2400 0 L0 0  Z
  " fill="#ffffff" fill-rule="evenodd" fill-opacity="1"/>
<defs>
  <clipPath id="clip531">
    <rect x="480" y="0" width="1681" height="1600"/>
  </clipPath>
</defs>
<path clip-path="url(#clip530)" d="
M156.112 1486.45 L2352.76 1486.45 L2352.76 47.2441 L156.112 47.2441  Z
  " fill="#ffffff" fill-rule="evenodd" fill-opacity="1"/>
<defs>
  <clipPath id="clip532">
    <rect x="156" y="47" width="2198" height="1440"/>
  </clipPath>
</defs>
<polyline clip-path="url(#clip532)" style="stroke:#000000; stroke-linecap:round; stroke-linejoin:round; stroke-width:2; stroke-opacity:0.1; fill:none" points="
  207.92,1486.45 207.92,47.2441 
  "/>
<polyline clip-path="url(#clip532)" style="stroke:#000000; stroke-linecap:round; stroke-linejoin:round; stroke-width:2; stroke-opacity:0.1; fill:none" points="
  622.381,1486.45 622.381,47.2441 
  "/>
<polyline clip-path="url(#clip532)" style="stroke:#000000; stroke-linecap:round; stroke-linejoin:round; stroke-width:2; stroke-opacity:0.1; fill:none" points="
  1036.84,1486.45 1036.84,47.2441 
  "/>
<polyline clip-path="url(#clip532)" style="stroke:#000000; stroke-linecap:round; stroke-linejoin:round; stroke-width:2; stroke-opacity:0.1; fill:none" points="
  1451.3,1486.45 1451.3,47.2441 
  "/>
<polyline clip-path="url(#clip532)" style="stroke:#000000; stroke-linecap:round; stroke-linejoin:round; stroke-width:2; stroke-opacity:0.1; fill:none" points="
  1865.76,1486.45 1865.76,47.2441 
  "/>
<polyline clip-path="url(#clip532)" style="stroke:#000000; stroke-linecap:round; stroke-linejoin:round; stroke-width:2; stroke-opacity:0.1; fill:none" points="
  2280.23,1486.45 2280.23,47.2441 
  "/>
<polyline clip-path="url(#clip530)" style="stroke:#000000; stroke-linecap:round; stroke-linejoin:round; stroke-width:4; stroke-opacity:1; fill:none" points="
  156.112,1486.45 2352.76,1486.45 
  "/>
<polyline clip-path="url(#clip530)" style="stroke:#000000; stroke-linecap:round; stroke-linejoin:round; stroke-width:4; stroke-opacity:1; fill:none" points="
  207.92,1486.45 207.92,1467.55 
  "/>
<polyline clip-path="url(#clip530)" style="stroke:#000000; stroke-linecap:round; stroke-linejoin:round; stroke-width:4; stroke-opacity:1; fill:none" points="
  622.381,1486.45 622.381,1467.55 
  "/>
<polyline clip-path="url(#clip530)" style="stroke:#000000; stroke-linecap:round; stroke-linejoin:round; stroke-width:4; stroke-opacity:1; fill:none" points="
  1036.84,1486.45 1036.84,1467.55 
  "/>
<polyline clip-path="url(#clip530)" style="stroke:#000000; stroke-linecap:round; stroke-linejoin:round; stroke-width:4; stroke-opacity:1; fill:none" points="
  1451.3,1486.45 1451.3,1467.55 
  "/>
<polyline clip-path="url(#clip530)" style="stroke:#000000; stroke-linecap:round; stroke-linejoin:round; stroke-width:4; stroke-opacity:1; fill:none" points="
  1865.76,1486.45 1865.76,1467.55 
  "/>
<polyline clip-path="url(#clip530)" style="stroke:#000000; stroke-linecap:round; stroke-linejoin:round; stroke-width:4; stroke-opacity:1; fill:none" points="
  2280.23,1486.45 2280.23,1467.55 
  "/>
<path clip-path="url(#clip530)" d="M207.92 1517.37 Q204.309 1517.37 202.48 1520.93 Q200.674 1524.47 200.674 1531.6 Q200.674 1538.71 202.48 1542.27 Q204.309 1545.82 207.92 1545.82 Q211.554 1545.82 213.36 1542.27 Q215.188 1538.71 215.188 1531.6 Q215.188 1524.47 213.36 1520.93 Q211.554 1517.37 207.92 1517.37 M207.92 1513.66 Q213.73 1513.66 216.785 1518.27 Q219.864 1522.85 219.864 1531.6 Q219.864 1540.33 216.785 1544.94 Q213.73 1549.52 207.92 1549.52 Q202.11 1549.52 199.031 1544.94 Q195.975 1540.33 195.975 1531.6 Q195.975 1522.85 199.031 1518.27 Q202.11 1513.66 207.92 1513.66 Z" fill="#000000" fill-rule="evenodd" fill-opacity="1" /><path clip-path="url(#clip530)" d="M612.659 1514.29 L631.015 1514.29 L631.015 1518.22 L616.941 1518.22 L616.941 1526.7 Q617.96 1526.35 618.978 1526.19 Q619.997 1526 621.015 1526 Q626.802 1526 630.182 1529.17 Q633.561 1532.34 633.561 1537.76 Q633.561 1543.34 630.089 1546.44 Q626.617 1549.52 620.298 1549.52 Q618.122 1549.52 615.853 1549.15 Q613.608 1548.78 611.2 1548.04 L611.2 1543.34 Q613.284 1544.47 615.506 1545.03 Q617.728 1545.58 620.205 1545.58 Q624.21 1545.58 626.547 1543.48 Q628.885 1541.37 628.885 1537.76 Q628.885 1534.15 626.547 1532.04 Q624.21 1529.94 620.205 1529.94 Q618.33 1529.94 616.455 1530.35 Q614.603 1530.77 612.659 1531.65 L612.659 1514.29 Z" fill="#000000" fill-rule="evenodd" fill-opacity="1" /><path clip-path="url(#clip530)" d="M1011.53 1544.91 L1019.17 1544.91 L1019.17 1518.55 L1010.86 1520.21 L1010.86 1515.95 L1019.12 1514.29 L1023.8 1514.29 L1023.8 1544.91 L1031.44 1544.91 L1031.44 1548.85 L1011.53 1548.85 L1011.53 1544.91 Z" fill="#000000" fill-rule="evenodd" fill-opacity="1" /><path clip-path="url(#clip530)" d="M1050.88 1517.37 Q1047.27 1517.37 1045.44 1520.93 Q1043.64 1524.47 1043.64 1531.6 Q1043.64 1538.71 1045.44 1542.27 Q1047.27 1545.82 1050.88 1545.82 Q1054.52 1545.82 1056.32 1542.27 Q1058.15 1538.71 1058.15 1531.6 Q1058.15 1524.47 1056.32 1520.93 Q1054.52 1517.37 1050.88 1517.37 M1050.88 1513.66 Q1056.69 1513.66 1059.75 1518.27 Q1062.83 1522.85 1062.83 1531.6 Q1062.83 1540.33 1059.75 1544.94 Q1056.69 1549.52 1050.88 1549.52 Q1045.07 1549.52 1041.99 1544.94 Q1038.94 1540.33 1038.94 1531.6 Q1038.94 1522.85 1041.99 1518.27 Q1045.07 1513.66 1050.88 1513.66 Z" fill="#000000" fill-rule="evenodd" fill-opacity="1" /><path clip-path="url(#clip530)" d="M1426.49 1544.91 L1434.13 1544.91 L1434.13 1518.55 L1425.82 1520.21 L1425.82 1515.95 L1434.08 1514.29 L1438.76 1514.29 L1438.76 1544.91 L1446.4 1544.91 L1446.4 1548.85 L1426.49 1548.85 L1426.49 1544.91 Z" fill="#000000" fill-rule="evenodd" fill-opacity="1" /><path clip-path="url(#clip530)" d="M1455.89 1514.29 L1474.24 1514.29 L1474.24 1518.22 L1460.17 1518.22 L1460.17 1526.7 Q1461.19 1526.35 1462.21 1526.19 Q1463.22 1526 1464.24 1526 Q1470.03 1526 1473.41 1529.17 Q1476.79 1532.34 1476.79 1537.76 Q1476.79 1543.34 1473.32 1546.44 Q1469.84 1549.52 1463.53 1549.52 Q1461.35 1549.52 1459.08 1549.15 Q1456.84 1548.78 1454.43 1548.04 L1454.43 1543.34 Q1456.51 1544.47 1458.73 1545.03 Q1460.96 1545.58 1463.43 1545.58 Q1467.44 1545.58 1469.78 1543.48 Q1472.11 1541.37 1472.11 1537.76 Q1472.11 1534.15 1469.78 1532.04 Q1467.44 1529.94 1463.43 1529.94 Q1461.56 1529.94 1459.68 1530.35 Q1457.83 1530.77 1455.89 1531.65 L1455.89 1514.29 Z" fill="#000000" fill-rule="evenodd" fill-opacity="1" /><path clip-path="url(#clip530)" d="M1844.54 1544.91 L1860.86 1544.91 L1860.86 1548.85 L1838.91 1548.85 L1838.91 1544.91 Q1841.57 1542.16 1846.16 1537.53 Q1850.76 1532.88 1851.94 1531.53 Q1854.19 1529.01 1855.07 1527.27 Q1855.97 1525.51 1855.97 1523.82 Q1855.97 1521.07 1854.03 1519.33 Q1852.11 1517.6 1849 1517.6 Q1846.81 1517.6 1844.35 1518.36 Q1841.92 1519.13 1839.14 1520.68 L1839.14 1515.95 Q1841.97 1514.82 1844.42 1514.24 Q1846.88 1513.66 1848.91 1513.66 Q1854.28 1513.66 1857.48 1516.35 Q1860.67 1519.03 1860.67 1523.52 Q1860.67 1525.65 1859.86 1527.57 Q1859.07 1529.47 1856.97 1532.07 Q1856.39 1532.74 1853.29 1535.95 Q1850.19 1539.15 1844.54 1544.91 Z" fill="#000000" fill-rule="evenodd" fill-opacity="1" /><path clip-path="url(#clip530)" d="M1880.67 1517.37 Q1877.06 1517.37 1875.23 1520.93 Q1873.43 1524.47 1873.43 1531.6 Q1873.43 1538.71 1875.23 1542.27 Q1877.06 1545.82 1880.67 1545.82 Q1884.31 1545.82 1886.11 1542.27 Q1887.94 1538.71 1887.94 1531.6 Q1887.94 1524.47 1886.11 1520.93 Q1884.31 1517.37 1880.67 1517.37 M1880.67 1513.66 Q1886.48 1513.66 1889.54 1518.27 Q1892.62 1522.85 1892.62 1531.6 Q1892.62 1540.33 1889.54 1544.94 Q1886.48 1549.52 1880.67 1549.52 Q1874.86 1549.52 1871.78 1544.94 Q1868.73 1540.33 1868.73 1531.6 Q1868.73 1522.85 1871.78 1518.27 Q1874.86 1513.66 1880.67 1513.66 Z" fill="#000000" fill-rule="evenodd" fill-opacity="1" /><path clip-path="url(#clip530)" d="M2259.5 1544.91 L2275.82 1544.91 L2275.82 1548.85 L2253.87 1548.85 L2253.87 1544.91 Q2256.53 1542.16 2261.12 1537.53 Q2265.72 1532.88 2266.9 1531.53 Q2269.15 1529.01 2270.03 1527.27 Q2270.93 1525.51 2270.93 1523.82 Q2270.93 1521.07 2268.99 1519.33 Q2267.07 1517.6 2263.96 1517.6 Q2261.76 1517.6 2259.31 1518.36 Q2256.88 1519.13 2254.1 1520.68 L2254.1 1515.95 Q2256.93 1514.82 2259.38 1514.24 Q2261.83 1513.66 2263.87 1513.66 Q2269.24 1513.66 2272.44 1516.35 Q2275.63 1519.03 2275.63 1523.52 Q2275.63 1525.65 2274.82 1527.57 Q2274.03 1529.47 2271.93 1532.07 Q2271.35 1532.74 2268.25 1535.95 Q2265.14 1539.15 2259.5 1544.91 Z" fill="#000000" fill-rule="evenodd" fill-opacity="1" /><path clip-path="url(#clip530)" d="M2285.68 1514.29 L2304.03 1514.29 L2304.03 1518.22 L2289.96 1518.22 L2289.96 1526.7 Q2290.98 1526.35 2292 1526.19 Q2293.01 1526 2294.03 1526 Q2299.82 1526 2303.2 1529.17 Q2306.58 1532.34 2306.58 1537.76 Q2306.58 1543.34 2303.11 1546.44 Q2299.63 1549.52 2293.32 1549.52 Q2291.14 1549.52 2288.87 1549.15 Q2286.63 1548.78 2284.22 1548.04 L2284.22 1543.34 Q2286.3 1544.47 2288.52 1545.03 Q2290.75 1545.58 2293.22 1545.58 Q2297.23 1545.58 2299.57 1543.48 Q2301.9 1541.37 2301.9 1537.76 Q2301.9 1534.15 2299.57 1532.04 Q2297.23 1529.94 2293.22 1529.94 Q2291.35 1529.94 2289.47 1530.35 Q2287.62 1530.77 2285.68 1531.65 L2285.68 1514.29 Z" fill="#000000" fill-rule="evenodd" fill-opacity="1" /><polyline clip-path="url(#clip532)" style="stroke:#000000; stroke-linecap:round; stroke-linejoin:round; stroke-width:2; stroke-opacity:0.1; fill:none" points="
  156.112,1203.27 2352.76,1203.27 
  "/>
<polyline clip-path="url(#clip532)" style="stroke:#000000; stroke-linecap:round; stroke-linejoin:round; stroke-width:2; stroke-opacity:0.1; fill:none" points="
  156.112,841.429 2352.76,841.429 
  "/>
<polyline clip-path="url(#clip532)" style="stroke:#000000; stroke-linecap:round; stroke-linejoin:round; stroke-width:2; stroke-opacity:0.1; fill:none" points="
  156.112,479.589 2352.76,479.589 
  "/>
<polyline clip-path="url(#clip532)" style="stroke:#000000; stroke-linecap:round; stroke-linejoin:round; stroke-width:2; stroke-opacity:0.1; fill:none" points="
  156.112,117.748 2352.76,117.748 
  "/>
<polyline clip-path="url(#clip530)" style="stroke:#000000; stroke-linecap:round; stroke-linejoin:round; stroke-width:4; stroke-opacity:1; fill:none" points="
  156.112,1486.45 156.112,47.2441 
  "/>
<polyline clip-path="url(#clip530)" style="stroke:#000000; stroke-linecap:round; stroke-linejoin:round; stroke-width:4; stroke-opacity:1; fill:none" points="
  156.112,1203.27 175.01,1203.27 
  "/>
<polyline clip-path="url(#clip530)" style="stroke:#000000; stroke-linecap:round; stroke-linejoin:round; stroke-width:4; stroke-opacity:1; fill:none" points="
  156.112,841.429 175.01,841.429 
  "/>
<polyline clip-path="url(#clip530)" style="stroke:#000000; stroke-linecap:round; stroke-linejoin:round; stroke-width:4; stroke-opacity:1; fill:none" points="
  156.112,479.589 175.01,479.589 
  "/>
<polyline clip-path="url(#clip530)" style="stroke:#000000; stroke-linecap:round; stroke-linejoin:round; stroke-width:4; stroke-opacity:1; fill:none" points="
  156.112,117.748 175.01,117.748 
  "/>
<path clip-path="url(#clip530)" d="M62.9365 1189.07 Q59.3254 1189.07 57.4967 1192.63 Q55.6912 1196.17 55.6912 1203.3 Q55.6912 1210.41 57.4967 1213.97 Q59.3254 1217.52 62.9365 1217.52 Q66.5707 1217.52 68.3763 1213.97 Q70.205 1210.41 70.205 1203.3 Q70.205 1196.17 68.3763 1192.63 Q66.5707 1189.07 62.9365 1189.07 M62.9365 1185.36 Q68.7467 1185.36 71.8022 1189.97 Q74.8809 1194.55 74.8809 1203.3 Q74.8809 1212.03 71.8022 1216.64 Q68.7467 1221.22 62.9365 1221.22 Q57.1264 1221.22 54.0477 1216.64 Q50.9921 1212.03 50.9921 1203.3 Q50.9921 1194.55 54.0477 1189.97 Q57.1264 1185.36 62.9365 1185.36 Z" fill="#000000" fill-rule="evenodd" fill-opacity="1" /><path clip-path="url(#clip530)" d="M83.0984 1214.67 L87.9827 1214.67 L87.9827 1220.55 L83.0984 1220.55 L83.0984 1214.67 Z" fill="#000000" fill-rule="evenodd" fill-opacity="1" /><path clip-path="url(#clip530)" d="M108.168 1189.07 Q104.557 1189.07 102.728 1192.63 Q100.922 1196.17 100.922 1203.3 Q100.922 1210.41 102.728 1213.97 Q104.557 1217.52 108.168 1217.52 Q111.802 1217.52 113.608 1213.97 Q115.436 1210.41 115.436 1203.3 Q115.436 1196.17 113.608 1192.63 Q111.802 1189.07 108.168 1189.07 M108.168 1185.36 Q113.978 1185.36 117.033 1189.97 Q120.112 1194.55 120.112 1203.3 Q120.112 1212.03 117.033 1216.64 Q113.978 1221.22 108.168 1221.22 Q102.358 1221.22 99.2789 1216.64 Q96.2234 1212.03 96.2234 1203.3 Q96.2234 1194.55 99.2789 1189.97 Q102.358 1185.36 108.168 1185.36 Z" fill="#000000" fill-rule="evenodd" fill-opacity="1" /><path clip-path="url(#clip530)" d="M64.1634 827.227 Q60.5523 827.227 58.7236 830.792 Q56.918 834.334 56.918 841.463 Q56.918 848.57 58.7236 852.135 Q60.5523 855.676 64.1634 855.676 Q67.7976 855.676 69.6031 852.135 Q71.4318 848.57 71.4318 841.463 Q71.4318 834.334 69.6031 830.792 Q67.7976 827.227 64.1634 827.227 M64.1634 823.524 Q69.9735 823.524 73.029 828.13 Q76.1077 832.714 76.1077 841.463 Q76.1077 850.19 73.029 854.797 Q69.9735 859.38 64.1634 859.38 Q58.3532 859.38 55.2745 854.797 Q52.219 850.19 52.219 841.463 Q52.219 832.714 55.2745 828.13 Q58.3532 823.524 64.1634 823.524 Z" fill="#000000" fill-rule="evenodd" fill-opacity="1" /><path clip-path="url(#clip530)" d="M84.3253 852.829 L89.2095 852.829 L89.2095 858.709 L84.3253 858.709 L84.3253 852.829 Z" fill="#000000" fill-rule="evenodd" fill-opacity="1" /><path clip-path="url(#clip530)" d="M100.205 854.774 L107.844 854.774 L107.844 828.408 L99.5335 830.075 L99.5335 825.815 L107.797 824.149 L112.473 824.149 L112.473 854.774 L120.112 854.774 L120.112 858.709 L100.205 858.709 L100.205 854.774 Z" fill="#000000" fill-rule="evenodd" fill-opacity="1" /><path clip-path="url(#clip530)" d="M64.5337 465.387 Q60.9226 465.387 59.0939 468.952 Q57.2884 472.494 57.2884 479.623 Q57.2884 486.73 59.0939 490.294 Q60.9226 493.836 64.5337 493.836 Q68.168 493.836 69.9735 490.294 Q71.8022 486.73 71.8022 479.623 Q71.8022 472.494 69.9735 468.952 Q68.168 465.387 64.5337 465.387 M64.5337 461.684 Q70.3439 461.684 73.3994 466.29 Q76.4781 470.873 76.4781 479.623 Q76.4781 488.35 73.3994 492.956 Q70.3439 497.54 64.5337 497.54 Q58.7236 497.54 55.6449 492.956 Q52.5893 488.35 52.5893 479.623 Q52.5893 470.873 55.6449 466.29 Q58.7236 461.684 64.5337 461.684 Z" fill="#000000" fill-rule="evenodd" fill-opacity="1" /><path clip-path="url(#clip530)" d="M84.6956 490.989 L89.5799 490.989 L89.5799 496.869 L84.6956 496.869 L84.6956 490.989 Z" fill="#000000" fill-rule="evenodd" fill-opacity="1" /><path clip-path="url(#clip530)" d="M103.793 492.933 L120.112 492.933 L120.112 496.869 L98.1678 496.869 L98.1678 492.933 Q100.83 490.179 105.413 485.549 Q110.02 480.896 111.2 479.554 Q113.445 477.031 114.325 475.295 Q115.228 473.535 115.228 471.845 Q115.228 469.091 113.283 467.355 Q111.362 465.619 108.26 465.619 Q106.061 465.619 103.608 466.383 Q101.177 467.146 98.3993 468.697 L98.3993 463.975 Q101.223 462.841 103.677 462.262 Q106.131 461.684 108.168 461.684 Q113.538 461.684 116.733 464.369 Q119.927 467.054 119.927 471.545 Q119.927 473.674 119.117 475.595 Q118.33 477.494 116.223 480.086 Q115.645 480.757 112.543 483.975 Q109.441 487.169 103.793 492.933 Z" fill="#000000" fill-rule="evenodd" fill-opacity="1" /><path clip-path="url(#clip530)" d="M63.5847 103.547 Q59.9736 103.547 58.1449 107.112 Q56.3393 110.653 56.3393 117.783 Q56.3393 124.889 58.1449 128.454 Q59.9736 131.996 63.5847 131.996 Q67.2189 131.996 69.0244 128.454 Q70.8531 124.889 70.8531 117.783 Q70.8531 110.653 69.0244 107.112 Q67.2189 103.547 63.5847 103.547 M63.5847 99.8432 Q69.3948 99.8432 72.4503 104.45 Q75.529 109.033 75.529 117.783 Q75.529 126.51 72.4503 131.116 Q69.3948 135.7 63.5847 135.7 Q57.7745 135.7 54.6958 131.116 Q51.6403 126.51 51.6403 117.783 Q51.6403 109.033 54.6958 104.45 Q57.7745 99.8432 63.5847 99.8432 Z" fill="#000000" fill-rule="evenodd" fill-opacity="1" /><path clip-path="url(#clip530)" d="M83.7466 129.149 L88.6308 129.149 L88.6308 135.028 L83.7466 135.028 L83.7466 129.149 Z" fill="#000000" fill-rule="evenodd" fill-opacity="1" /><path clip-path="url(#clip530)" d="M112.983 116.394 Q116.339 117.112 118.214 119.38 Q120.112 121.649 120.112 124.982 Q120.112 130.098 116.594 132.899 Q113.075 135.7 106.594 135.7 Q104.418 135.7 102.103 135.26 Q99.8113 134.843 97.3576 133.987 L97.3576 129.473 Q99.3021 130.607 101.617 131.186 Q103.932 131.764 106.455 131.764 Q110.853 131.764 113.145 130.028 Q115.459 128.292 115.459 124.982 Q115.459 121.926 113.307 120.214 Q111.177 118.477 107.358 118.477 L103.33 118.477 L103.33 114.635 L107.543 114.635 Q110.992 114.635 112.82 113.269 Q114.649 111.88 114.649 109.288 Q114.649 106.626 112.751 105.214 Q110.876 103.778 107.358 103.778 Q105.436 103.778 103.237 104.195 Q101.038 104.612 98.3993 105.491 L98.3993 101.325 Q101.061 100.584 103.376 100.214 Q105.714 99.8432 107.774 99.8432 Q113.098 99.8432 116.2 102.274 Q119.302 104.681 119.302 108.802 Q119.302 111.672 117.658 113.663 Q116.015 115.63 112.983 116.394 Z" fill="#000000" fill-rule="evenodd" fill-opacity="1" /><polyline clip-path="url(#clip532)" style="stroke:#009af9; stroke-linecap:round; stroke-linejoin:round; stroke-width:4; stroke-opacity:1; fill:none" points="
  218.281,87.9763 228.643,232.275 239.004,357.443 249.366,466.217 259.727,560.877 270.089,643.344 280.45,715.243 290.812,777.964 301.174,832.698 311.535,880.471 
  321.897,922.171 332.258,958.569 342.62,990.333 352.981,1018.05 363.343,1042.22 373.704,1063.3 384.066,1081.68 394.427,1097.69 404.789,1111.63 415.15,1123.76 
  425.512,1134.32 435.873,1143.5 446.235,1151.48 456.596,1158.42 466.958,1164.44 477.319,1169.67 487.681,1174.2 498.043,1178.13 508.404,1181.54 518.766,1184.49 
  529.127,1187.04 539.489,1189.25 549.85,1191.17 560.212,1192.82 570.573,1194.26 580.935,1195.49 591.296,1196.56 601.658,1197.48 612.019,1198.28 622.381,1198.97 
  632.742,1199.56 643.104,1200.08 653.465,1200.52 663.827,1200.9 674.188,1201.23 684.55,1201.51 694.912,1201.76 705.273,1201.97 715.635,1202.15 725.996,1202.3 
  736.358,1202.44 746.719,1202.55 757.081,1202.65 767.442,1202.74 777.804,1202.81 788.165,1202.88 798.527,1202.93 808.888,1202.98 819.25,1203.02 829.611,1203.05 
  839.973,1203.08 850.334,1203.11 860.696,1203.13 871.058,1203.15 881.419,1203.17 891.781,1203.18 902.142,1203.19 912.504,1203.2 922.865,1203.21 933.227,1203.22 
  943.588,1203.23 953.95,1203.23 964.311,1203.24 974.673,1203.24 985.034,1203.25 995.396,1203.25 1005.76,1203.25 1016.12,1203.25 1026.48,1203.26 1036.84,1203.26 
  1047.2,1203.26 1057.56,1203.26 1067.93,1203.26 1078.29,1203.26 1088.65,1203.26 1099.01,1203.26 1109.37,1203.27 1119.73,1203.27 1130.1,1203.27 1140.46,1203.27 
  1150.82,1203.27 1161.18,1203.27 1171.54,1203.27 1181.9,1203.27 1192.26,1203.27 1202.63,1203.27 1212.99,1203.27 1223.35,1203.27 1233.71,1203.27 1244.07,1203.27 
  1254.43,1203.27 1264.8,1203.27 1275.16,1203.27 1285.52,1203.27 1295.88,1203.27 1306.24,1203.27 1316.6,1203.27 1326.96,1203.27 1337.33,1203.27 1347.69,1203.27 
  1358.05,1203.27 1368.41,1203.27 1378.77,1203.27 1389.13,1203.27 1399.5,1203.27 1409.86,1203.27 1420.22,1203.27 1430.58,1203.27 1440.94,1203.27 1451.3,1203.27 
  1461.66,1203.27 1472.03,1203.27 1482.39,1203.27 1492.75,1203.27 1503.11,1203.27 1513.47,1203.27 1523.83,1203.27 1534.2,1203.27 1544.56,1203.27 1554.92,1203.27 
  1565.28,1203.27 1575.64,1203.27 1586,1203.27 1596.36,1203.27 1606.73,1203.27 1617.09,1203.27 1627.45,1203.27 1637.81,1203.27 1648.17,1203.27 1658.53,1203.27 
  1668.9,1203.27 1679.26,1203.27 1689.62,1203.27 1699.98,1203.27 1710.34,1203.27 1720.7,1203.27 1731.06,1203.27 1741.43,1203.27 1751.79,1203.27 1762.15,1203.27 
  1772.51,1203.27 1782.87,1203.27 1793.23,1203.27 1803.59,1203.27 1813.96,1203.27 1824.32,1203.27 1834.68,1203.27 1845.04,1203.27 1855.4,1203.27 1865.76,1203.27 
  1876.13,1203.27 1886.49,1203.27 1896.85,1203.27 1907.21,1203.27 1917.57,1203.27 1927.93,1203.27 1938.29,1203.27 1948.66,1203.27 1959.02,1203.27 1969.38,1203.27 
  1979.74,1203.27 1990.1,1203.27 2000.46,1203.27 2010.83,1203.27 2021.19,1203.27 2031.55,1203.27 2041.91,1203.27 2052.27,1203.27 2062.63,1203.27 2072.99,1203.27 
  2083.36,1203.27 2093.72,1203.27 2104.08,1203.27 2114.44,1203.27 2124.8,1203.27 2135.16,1203.27 2145.53,1203.27 2155.89,1203.27 2166.25,1203.27 2176.61,1203.27 
  2186.97,1203.27 2197.33,1203.27 2207.69,1203.27 2218.06,1203.27 2228.42,1203.27 2238.78,1203.27 2249.14,1203.27 2259.5,1203.27 2269.86,1203.27 2280.23,1203.27 
  2290.59,1203.27 
  "/>
<polyline clip-path="url(#clip532)" style="stroke:#e26f46; stroke-linecap:round; stroke-linejoin:round; stroke-width:4; stroke-opacity:1; fill:none" points="
  218.281,1203.27 228.643,1266.33 239.004,1316.18 249.366,1355.13 259.727,1385.04 270.089,1407.48 280.45,1423.72 290.812,1434.84 301.174,1441.73 311.535,1445.14 
  321.897,1445.72 332.258,1443.98 342.62,1440.39 352.981,1435.32 363.343,1429.11 373.704,1422.01 384.066,1414.25 394.427,1406.04 404.789,1397.52 415.15,1388.83 
  425.512,1380.09 435.873,1371.37 446.235,1362.75 456.596,1354.3 466.958,1346.05 477.319,1338.05 487.681,1330.32 498.043,1322.88 508.404,1315.74 518.766,1308.92 
  529.127,1302.41 539.489,1296.22 549.85,1290.34 560.212,1284.77 570.573,1279.51 580.935,1274.54 591.296,1269.85 601.658,1265.43 612.019,1261.28 622.381,1257.38 
  632.742,1253.72 643.104,1250.29 653.465,1247.07 663.827,1244.06 674.188,1241.25 684.55,1238.62 694.912,1236.16 705.273,1233.86 715.635,1231.72 725.996,1229.72 
  736.358,1227.86 746.719,1226.12 757.081,1224.51 767.442,1223 777.804,1221.6 788.165,1220.29 798.527,1219.08 808.888,1217.95 819.25,1216.9 829.611,1215.93 
  839.973,1215.02 850.334,1214.17 860.696,1213.39 871.058,1212.66 881.419,1211.99 891.781,1211.36 902.142,1210.78 912.504,1210.23 922.865,1209.73 933.227,1209.26 
  943.588,1208.83 953.95,1208.43 964.311,1208.05 974.673,1207.71 985.034,1207.39 995.396,1207.09 1005.76,1206.81 1016.12,1206.55 1026.48,1206.32 1036.84,1206.09 
  1047.2,1205.89 1057.56,1205.7 1067.93,1205.52 1078.29,1205.36 1088.65,1205.21 1099.01,1205.07 1109.37,1204.94 1119.73,1204.81 1130.1,1204.7 1140.46,1204.6 
  1150.82,1204.5 1161.18,1204.41 1171.54,1204.33 1181.9,1204.25 1192.26,1204.18 1202.63,1204.11 1212.99,1204.05 1223.35,1204 1233.71,1203.94 1244.07,1203.89 
  1254.43,1203.85 1264.8,1203.81 1275.16,1203.77 1285.52,1203.73 1295.88,1203.7 1306.24,1203.67 1316.6,1203.64 1326.96,1203.61 1337.33,1203.59 1347.69,1203.56 
  1358.05,1203.54 1368.41,1203.52 1378.77,1203.5 1389.13,1203.49 1399.5,1203.47 1409.86,1203.46 1420.22,1203.44 1430.58,1203.43 1440.94,1203.42 1451.3,1203.41 
  1461.66,1203.4 1472.03,1203.39 1482.39,1203.38 1492.75,1203.37 1503.11,1203.36 1513.47,1203.36 1523.83,1203.35 1534.2,1203.34 1544.56,1203.34 1554.92,1203.33 
  1565.28,1203.33 1575.64,1203.32 1586,1203.32 1596.36,1203.32 1606.73,1203.31 1617.09,1203.31 1627.45,1203.31 1637.81,1203.3 1648.17,1203.3 1658.53,1203.3 
  1668.9,1203.3 1679.26,1203.3 1689.62,1203.29 1699.98,1203.29 1710.34,1203.29 1720.7,1203.29 1731.06,1203.29 1741.43,1203.29 1751.79,1203.28 1762.15,1203.28 
  1772.51,1203.28 1782.87,1203.28 1793.23,1203.28 1803.59,1203.28 1813.96,1203.28 1824.32,1203.28 1834.68,1203.28 1845.04,1203.28 1855.4,1203.28 1865.76,1203.28 
  1876.13,1203.28 1886.49,1203.27 1896.85,1203.27 1907.21,1203.27 1917.57,1203.27 1927.93,1203.27 1938.29,1203.27 1948.66,1203.27 1959.02,1203.27 1969.38,1203.27 
  1979.74,1203.27 1990.1,1203.27 2000.46,1203.27 2010.83,1203.27 2021.19,1203.27 2031.55,1203.27 2041.91,1203.27 2052.27,1203.27 2062.63,1203.27 2072.99,1203.27 
  2083.36,1203.27 2093.72,1203.27 2104.08,1203.27 2114.44,1203.27 2124.8,1203.27 2135.16,1203.27 2145.53,1203.27 2155.89,1203.27 2166.25,1203.27 2176.61,1203.27 
  2186.97,1203.27 2197.33,1203.27 2207.69,1203.27 2218.06,1203.27 2228.42,1203.27 2238.78,1203.27 2249.14,1203.27 2259.5,1203.27 2269.86,1203.27 2280.23,1203.27 
  2290.59,1203.27 
  "/>
<polyline clip-path="url(#clip532)" style="stroke:#3da44d; stroke-linecap:round; stroke-linejoin:round; stroke-width:4; stroke-opacity:1; fill:none" points="
  218.281,1203.27 228.643,1203.27 239.004,1203.27 249.366,1203.27 259.727,1203.27 270.089,1203.27 280.45,1203.27 290.812,1203.27 301.174,1203.27 311.535,1203.27 
  321.897,1203.27 332.258,1203.27 342.62,1203.27 352.981,1203.27 363.343,1203.27 373.704,1203.27 384.066,1203.27 394.427,1203.27 404.789,1203.27 415.15,1203.27 
  425.512,1203.27 435.873,1203.27 446.235,1203.27 456.596,1203.27 466.958,1203.27 477.319,1203.27 487.681,1203.27 498.043,1203.27 508.404,1203.27 518.766,1203.27 
  529.127,1203.27 539.489,1203.27 549.85,1203.27 560.212,1203.27 570.573,1203.27 580.935,1203.27 591.296,1203.27 601.658,1203.27 612.019,1203.27 622.381,1203.27 
  632.742,1203.27 643.104,1203.27 653.465,1203.27 663.827,1203.27 674.188,1203.27 684.55,1203.27 694.912,1203.27 705.273,1203.27 715.635,1203.27 725.996,1203.27 
  736.358,1203.27 746.719,1203.27 757.081,1203.27 767.442,1203.27 777.804,1203.27 788.165,1203.27 798.527,1203.27 808.888,1203.27 819.25,1203.27 829.611,1203.27 
  839.973,1203.27 850.334,1203.27 860.696,1203.27 871.058,1203.27 881.419,1203.27 891.781,1203.27 902.142,1203.27 912.504,1203.27 922.865,1203.27 933.227,1203.27 
  943.588,1203.27 953.95,1203.27 964.311,1203.27 974.673,1203.27 985.034,1203.27 995.396,1203.27 1005.76,1203.27 1016.12,1203.27 1026.48,1203.27 1036.84,1203.27 
  1047.2,1203.27 1057.56,1203.27 1067.93,1203.27 1078.29,1203.27 1088.65,1203.27 1099.01,1203.27 1109.37,1203.27 1119.73,1203.27 1130.1,1203.27 1140.46,1203.27 
  1150.82,1203.27 1161.18,1203.27 1171.54,1203.27 1181.9,1203.27 1192.26,1203.27 1202.63,1203.27 1212.99,1203.27 1223.35,1203.27 1233.71,1203.27 1244.07,1203.27 
  1254.43,1203.27 1264.8,1203.27 1275.16,1203.27 1285.52,1203.27 1295.88,1203.27 1306.24,1203.27 1316.6,1203.27 1326.96,1203.27 1337.33,1203.27 1347.69,1203.27 
  1358.05,1203.27 1368.41,1203.27 1378.77,1203.27 1389.13,1203.27 1399.5,1203.27 1409.86,1203.27 1420.22,1203.27 1430.58,1203.27 1440.94,1203.27 1451.3,1203.27 
  1461.66,1203.27 1472.03,1203.27 1482.39,1203.27 1492.75,1203.27 1503.11,1203.27 1513.47,1203.27 1523.83,1203.27 1534.2,1203.27 1544.56,1203.27 1554.92,1203.27 
  1565.28,1203.27 1575.64,1203.27 1586,1203.27 1596.36,1203.27 1606.73,1203.27 1617.09,1203.27 1627.45,1203.27 1637.81,1203.27 1648.17,1203.27 1658.53,1203.27 
  1668.9,1203.27 1679.26,1203.27 1689.62,1203.27 1699.98,1203.27 1710.34,1203.27 1720.7,1203.27 1731.06,1203.27 1741.43,1203.27 1751.79,1203.27 1762.15,1203.27 
  1772.51,1203.27 1782.87,1203.27 1793.23,1203.27 1803.59,1203.27 1813.96,1203.27 1824.32,1203.27 1834.68,1203.27 1845.04,1203.27 1855.4,1203.27 1865.76,1203.27 
  1876.13,1203.27 1886.49,1203.27 1896.85,1203.27 1907.21,1203.27 1917.57,1203.27 1927.93,1203.27 1938.29,1203.27 1948.66,1203.27 1959.02,1203.27 1969.38,1203.27 
  1979.74,1203.27 1990.1,1203.27 2000.46,1203.27 2010.83,1203.27 2021.19,1203.27 2031.55,1203.27 2041.91,1203.27 2052.27,1203.27 2062.63,1203.27 2072.99,1203.27 
  2083.36,1203.27 2093.72,1203.27 2104.08,1203.27 2114.44,1203.27 2124.8,1203.27 2135.16,1203.27 2145.53,1203.27 2155.89,1203.27 2166.25,1203.27 2176.61,1203.27 
  2186.97,1203.27 2197.33,1203.27 2207.69,1203.27 2218.06,1203.27 2228.42,1203.27 2238.78,1203.27 2249.14,1203.27 2259.5,1203.27 2269.86,1203.27 2280.23,1203.27 
  2290.59,1203.27 
  "/>
<polyline clip-path="url(#clip532)" style="stroke:#c271d2; stroke-linecap:round; stroke-linejoin:round; stroke-width:4; stroke-opacity:1; fill:none" points="
  218.281,87.9763 228.643,169.21 239.004,244.527 249.366,314.358 259.727,379.103 270.089,439.132 280.45,494.789 290.812,546.392 301.174,594.236 311.535,638.596 
  321.897,679.724 332.258,717.857 342.62,753.213 352.981,785.993 363.343,816.386 373.704,844.565 384.066,870.692 394.427,894.915 404.789,917.375 415.15,938.198 
  425.512,957.505 435.873,975.405 446.235,992.002 456.596,1007.39 466.958,1021.66 477.319,1034.89 487.681,1047.15 498.043,1058.52 508.404,1069.06 518.766,1078.84 
  529.127,1087.9 539.489,1096.3 549.85,1104.1 560.212,1111.32 570.573,1118.02 580.935,1124.23 591.296,1129.98 601.658,1135.32 612.019,1140.27 622.381,1144.86 
  632.742,1149.11 643.104,1153.06 653.465,1156.71 663.827,1160.11 674.188,1163.25 684.55,1166.16 694.912,1168.87 705.273,1171.37 715.635,1173.7 725.996,1175.85 
  736.358,1177.85 746.719,1179.7 757.081,1181.42 767.442,1183.01 777.804,1184.48 788.165,1185.85 798.527,1187.12 808.888,1188.3 819.25,1189.39 829.611,1190.4 
  839.973,1191.34 850.334,1192.2 860.696,1193.01 871.058,1193.76 881.419,1194.45 891.781,1195.09 902.142,1195.69 912.504,1196.24 922.865,1196.75 933.227,1197.23 
  943.588,1197.67 953.95,1198.08 964.311,1198.45 974.673,1198.8 985.034,1199.13 995.396,1199.43 1005.76,1199.71 1016.12,1199.97 1026.48,1200.21 1036.84,1200.43 
  1047.2,1200.64 1057.56,1200.83 1067.93,1201.01 1078.29,1201.17 1088.65,1201.33 1099.01,1201.47 1109.37,1201.6 1119.73,1201.72 1130.1,1201.83 1140.46,1201.94 
  1150.82,1202.03 1161.18,1202.12 1171.54,1202.21 1181.9,1202.29 1192.26,1202.36 1202.63,1202.42 1212.99,1202.48 1223.35,1202.54 1233.71,1202.59 1244.07,1202.64 
  1254.43,1202.69 1264.8,1202.73 1275.16,1202.77 1285.52,1202.81 1295.88,1202.84 1306.24,1202.87 1316.6,1202.9 1326.96,1202.93 1337.33,1202.95 1347.69,1202.98 
  1358.05,1203 1368.41,1203.02 1378.77,1203.04 1389.13,1203.05 1399.5,1203.07 1409.86,1203.08 1420.22,1203.1 1430.58,1203.11 1440.94,1203.12 1451.3,1203.13 
  1461.66,1203.14 1472.03,1203.15 1482.39,1203.16 1492.75,1203.17 1503.11,1203.17 1513.47,1203.18 1523.83,1203.19 1534.2,1203.19 1544.56,1203.2 1554.92,1203.2 
  1565.28,1203.21 1575.64,1203.21 1586,1203.22 1596.36,1203.22 1606.73,1203.22 1617.09,1203.23 1627.45,1203.23 1637.81,1203.23 1648.17,1203.24 1658.53,1203.24 
  1668.9,1203.24 1679.26,1203.24 1689.62,1203.24 1699.98,1203.25 1710.34,1203.25 1720.7,1203.25 1731.06,1203.25 1741.43,1203.25 1751.79,1203.25 1762.15,1203.25 
  1772.51,1203.26 1782.87,1203.26 1793.23,1203.26 1803.59,1203.26 1813.96,1203.26 1824.32,1203.26 1834.68,1203.26 1845.04,1203.26 1855.4,1203.26 1865.76,1203.26 
  1876.13,1203.26 1886.49,1203.26 1896.85,1203.26 1907.21,1203.26 1917.57,1203.26 1927.93,1203.26 1938.29,1203.27 1948.66,1203.27 1959.02,1203.27 1969.38,1203.27 
  1979.74,1203.27 1990.1,1203.27 2000.46,1203.27 2010.83,1203.27 2021.19,1203.27 2031.55,1203.27 2041.91,1203.27 2052.27,1203.27 2062.63,1203.27 2072.99,1203.27 
  2083.36,1203.27 2093.72,1203.27 2104.08,1203.27 2114.44,1203.27 2124.8,1203.27 2135.16,1203.27 2145.53,1203.27 2155.89,1203.27 2166.25,1203.27 2176.61,1203.27 
  2186.97,1203.27 2197.33,1203.27 2207.69,1203.27 2218.06,1203.27 2228.42,1203.27 2238.78,1203.27 2249.14,1203.27 2259.5,1203.27 2269.86,1203.27 2280.23,1203.27 
  2290.59,1203.27 
  "/>
<polyline clip-path="url(#clip532)" style="stroke:#ac8d18; stroke-linecap:round; stroke-linejoin:round; stroke-width:4; stroke-opacity:1; fill:none" points="
  218.281,198.088 228.643,328.266 239.004,441.633 249.366,540.405 259.727,626.484 270.089,701.51 280.45,766.905 290.812,823.899 301.174,873.563 311.535,916.831 
  321.897,954.516 332.258,987.326 342.62,1015.88 352.981,1040.73 363.343,1062.34 373.704,1081.12 384.066,1097.44 394.427,1111.62 404.789,1123.92 415.15,1134.6 
  425.512,1143.86 435.873,1151.9 446.235,1158.86 456.596,1164.89 466.958,1170.11 477.319,1174.63 487.681,1178.54 498.043,1181.92 508.404,1184.84 518.766,1187.37 
  529.127,1189.56 539.489,1191.44 549.85,1193.07 560.212,1194.48 570.573,1195.69 580.935,1196.74 591.296,1197.64 601.658,1198.42 612.019,1199.09 622.381,1199.67 
  632.742,1200.17 643.104,1200.6 653.465,1200.97 663.827,1201.29 674.188,1201.57 684.55,1201.8 694.912,1202.01 705.273,1202.18 715.635,1202.34 725.996,1202.47 
  736.358,1202.58 746.719,1202.67 757.081,1202.76 767.442,1202.83 777.804,1202.89 788.165,1202.94 798.527,1202.99 808.888,1203.03 819.25,1203.06 829.611,1203.09 
  839.973,1203.12 850.334,1203.14 860.696,1203.16 871.058,1203.17 881.419,1203.19 891.781,1203.2 902.142,1203.21 912.504,1203.22 922.865,1203.22 933.227,1203.23 
  943.588,1203.24 953.95,1203.24 964.311,1203.24 974.673,1203.25 985.034,1203.25 995.396,1203.25 1005.76,1203.26 1016.12,1203.26 1026.48,1203.26 1036.84,1203.26 
  1047.2,1203.26 1057.56,1203.26 1067.93,1203.26 1078.29,1203.26 1088.65,1203.26 1099.01,1203.27 1109.37,1203.27 1119.73,1203.27 1130.1,1203.27 1140.46,1203.27 
  1150.82,1203.27 1161.18,1203.27 1171.54,1203.27 1181.9,1203.27 1192.26,1203.27 1202.63,1203.27 1212.99,1203.27 1223.35,1203.27 1233.71,1203.27 1244.07,1203.27 
  1254.43,1203.27 1264.8,1203.27 1275.16,1203.27 1285.52,1203.27 1295.88,1203.27 1306.24,1203.27 1316.6,1203.27 1326.96,1203.27 1337.33,1203.27 1347.69,1203.27 
  1358.05,1203.27 1368.41,1203.27 1378.77,1203.27 1389.13,1203.27 1399.5,1203.27 1409.86,1203.27 1420.22,1203.27 1430.58,1203.27 1440.94,1203.27 1451.3,1203.27 
  1461.66,1203.27 1472.03,1203.27 1482.39,1203.27 1492.75,1203.27 1503.11,1203.27 1513.47,1203.27 1523.83,1203.27 1534.2,1203.27 1544.56,1203.27 1554.92,1203.27 
  1565.28,1203.27 1575.64,1203.27 1586,1203.27 1596.36,1203.27 1606.73,1203.27 1617.09,1203.27 1627.45,1203.27 1637.81,1203.27 1648.17,1203.27 1658.53,1203.27 
  1668.9,1203.27 1679.26,1203.27 1689.62,1203.27 1699.98,1203.27 1710.34,1203.27 1720.7,1203.27 1731.06,1203.27 1741.43,1203.27 1751.79,1203.27 1762.15,1203.27 
  1772.51,1203.27 1782.87,1203.27 1793.23,1203.27 1803.59,1203.27 1813.96,1203.27 1824.32,1203.27 1834.68,1203.27 1845.04,1203.27 1855.4,1203.27 1865.76,1203.27 
  1876.13,1203.27 1886.49,1203.27 1896.85,1203.27 1907.21,1203.27 1917.57,1203.27 1927.93,1203.27 1938.29,1203.27 1948.66,1203.27 1959.02,1203.27 1969.38,1203.27 
  1979.74,1203.27 1990.1,1203.27 2000.46,1203.27 2010.83,1203.27 2021.19,1203.27 2031.55,1203.27 2041.91,1203.27 2052.27,1203.27 2062.63,1203.27 2072.99,1203.27 
  2083.36,1203.27 2093.72,1203.27 2104.08,1203.27 2114.44,1203.27 2124.8,1203.27 2135.16,1203.27 2145.53,1203.27 2155.89,1203.27 2166.25,1203.27 2176.61,1203.27 
  2186.97,1203.27 2197.33,1203.27 2207.69,1203.27 2218.06,1203.27 2228.42,1203.27 2238.78,1203.27 2249.14,1203.27 2259.5,1203.27 2269.86,1203.27 2280.23,1203.27 
  2290.59,1203.27 
  "/>
<path clip-path="url(#clip530)" d="
M1590.33 406.258 L2279.53 406.258 L2279.53 95.2176 L1590.33 95.2176  Z
  " fill="#ffffff" fill-rule="evenodd" fill-opacity="1"/>
<polyline clip-path="url(#clip530)" style="stroke:#000000; stroke-linecap:round; stroke-linejoin:round; stroke-width:4; stroke-opacity:1; fill:none" points="
  1590.33,406.258 2279.53,406.258 2279.53,95.2176 1590.33,95.2176 1590.33,406.258 
  "/>
<polyline clip-path="url(#clip530)" style="stroke:#009af9; stroke-linecap:round; stroke-linejoin:round; stroke-width:4; stroke-opacity:1; fill:none" points="
  1614.73,147.058 1761.18,147.058 
  "/>
<path clip-path="url(#clip530)" d="M1785.58 129.778 L1807.44 129.778 L1807.44 133.713 L1790.26 133.713 L1790.26 143.944 L1806.72 143.944 L1806.72 147.879 L1790.26 147.879 L1790.26 160.402 L1807.85 160.402 L1807.85 164.338 L1785.58 164.338 L1785.58 129.778 Z" fill="#000000" fill-rule="evenodd" fill-opacity="1" /><path clip-path="url(#clip530)" d="M1836.9 148.689 L1836.9 164.338 L1832.64 164.338 L1832.64 148.828 Q1832.64 145.148 1831.21 143.319 Q1829.77 141.49 1826.9 141.49 Q1823.45 141.49 1821.46 143.69 Q1819.47 145.889 1819.47 149.685 L1819.47 164.338 L1815.19 164.338 L1815.19 138.412 L1819.47 138.412 L1819.47 142.44 Q1821 140.102 1823.06 138.944 Q1825.14 137.787 1827.85 137.787 Q1832.32 137.787 1834.61 140.565 Q1836.9 143.319 1836.9 148.689 Z" fill="#000000" fill-rule="evenodd" fill-opacity="1" /><path clip-path="url(#clip530)" d="M1849.61 131.051 L1849.61 138.412 L1858.38 138.412 L1858.38 141.722 L1849.61 141.722 L1849.61 155.796 Q1849.61 158.967 1850.47 159.87 Q1851.35 160.773 1854.01 160.773 L1858.38 160.773 L1858.38 164.338 L1854.01 164.338 Q1849.08 164.338 1847.2 162.509 Q1845.33 160.657 1845.33 155.796 L1845.33 141.722 L1842.2 141.722 L1842.2 138.412 L1845.33 138.412 L1845.33 131.051 L1849.61 131.051 Z" fill="#000000" fill-rule="evenodd" fill-opacity="1" /><path clip-path="url(#clip530)" d="M1879.01 142.393 Q1878.29 141.977 1877.43 141.791 Q1876.6 141.583 1875.58 141.583 Q1871.97 141.583 1870.03 143.944 Q1868.11 146.282 1868.11 150.68 L1868.11 164.338 L1863.82 164.338 L1863.82 138.412 L1868.11 138.412 L1868.11 142.44 Q1869.45 140.078 1871.6 138.944 Q1873.75 137.787 1876.83 137.787 Q1877.27 137.787 1877.81 137.856 Q1878.34 137.903 1878.99 138.018 L1879.01 142.393 Z" fill="#000000" fill-rule="evenodd" fill-opacity="1" /><path clip-path="url(#clip530)" d="M1892.48 141.398 Q1889.06 141.398 1887.06 144.083 Q1885.07 146.745 1885.07 151.398 Q1885.07 156.051 1887.04 158.736 Q1889.03 161.398 1892.48 161.398 Q1895.88 161.398 1897.87 158.713 Q1899.87 156.027 1899.87 151.398 Q1899.87 146.791 1897.87 144.106 Q1895.88 141.398 1892.48 141.398 M1892.48 137.787 Q1898.04 137.787 1901.21 141.398 Q1904.38 145.009 1904.38 151.398 Q1904.38 157.764 1901.21 161.398 Q1898.04 165.009 1892.48 165.009 Q1886.9 165.009 1883.73 161.398 Q1880.58 157.764 1880.58 151.398 Q1880.58 145.009 1883.73 141.398 Q1886.9 137.787 1892.48 137.787 Z" fill="#000000" fill-rule="evenodd" fill-opacity="1" /><path clip-path="url(#clip530)" d="M1915.56 160.449 L1915.56 174.199 L1911.28 174.199 L1911.28 138.412 L1915.56 138.412 L1915.56 142.347 Q1916.9 140.032 1918.94 138.921 Q1921 137.787 1923.85 137.787 Q1928.57 137.787 1931.51 141.537 Q1934.47 145.287 1934.47 151.398 Q1934.47 157.509 1931.51 161.259 Q1928.57 165.009 1923.85 165.009 Q1921 165.009 1918.94 163.898 Q1916.9 162.763 1915.56 160.449 M1930.05 151.398 Q1930.05 146.699 1928.11 144.037 Q1926.18 141.352 1922.81 141.352 Q1919.43 141.352 1917.48 144.037 Q1915.56 146.699 1915.56 151.398 Q1915.56 156.097 1917.48 158.782 Q1919.43 161.444 1922.81 161.444 Q1926.18 161.444 1928.11 158.782 Q1930.05 156.097 1930.05 151.398 Z" fill="#000000" fill-rule="evenodd" fill-opacity="1" /><path clip-path="url(#clip530)" d="M1952.32 166.745 Q1950.51 171.375 1948.8 172.787 Q1947.09 174.199 1944.22 174.199 L1940.81 174.199 L1940.81 170.634 L1943.31 170.634 Q1945.07 170.634 1946.05 169.8 Q1947.02 168.967 1948.2 165.865 L1948.96 163.921 L1938.48 138.412 L1942.99 138.412 L1951.09 158.689 L1959.19 138.412 L1963.71 138.412 L1952.32 166.745 Z" fill="#000000" fill-rule="evenodd" fill-opacity="1" /><path clip-path="url(#clip530)" d="M1988.78 160.449 L1988.78 174.199 L1984.49 174.199 L1984.49 138.412 L1988.78 138.412 L1988.78 142.347 Q1990.12 140.032 1992.16 138.921 Q1994.22 137.787 1997.06 137.787 Q2001.79 137.787 2004.73 141.537 Q2007.69 145.287 2007.69 151.398 Q2007.69 157.509 2004.73 161.259 Q2001.79 165.009 1997.06 165.009 Q1994.22 165.009 1992.16 163.898 Q1990.12 162.763 1988.78 160.449 M2003.27 151.398 Q2003.27 146.699 2001.32 144.037 Q1999.4 141.352 1996.02 141.352 Q1992.64 141.352 1990.7 144.037 Q1988.78 146.699 1988.78 151.398 Q1988.78 156.097 1990.7 158.782 Q1992.64 161.444 1996.02 161.444 Q1999.4 161.444 2001.32 158.782 Q2003.27 156.097 2003.27 151.398 Z" fill="#000000" fill-rule="evenodd" fill-opacity="1" /><path clip-path="url(#clip530)" d="M2029.77 142.393 Q2029.05 141.977 2028.2 141.791 Q2027.36 141.583 2026.35 141.583 Q2022.74 141.583 2020.79 143.944 Q2018.87 146.282 2018.87 150.68 L2018.87 164.338 L2014.59 164.338 L2014.59 138.412 L2018.87 138.412 L2018.87 142.44 Q2020.21 140.078 2022.36 138.944 Q2024.52 137.787 2027.6 137.787 Q2028.04 137.787 2028.57 137.856 Q2029.1 137.903 2029.75 138.018 L2029.77 142.393 Z" fill="#000000" fill-rule="evenodd" fill-opacity="1" /><path clip-path="url(#clip530)" d="M2043.24 141.398 Q2039.82 141.398 2037.83 144.083 Q2035.84 146.745 2035.84 151.398 Q2035.84 156.051 2037.8 158.736 Q2039.8 161.398 2043.24 161.398 Q2046.65 161.398 2048.64 158.713 Q2050.63 156.027 2050.63 151.398 Q2050.63 146.791 2048.64 144.106 Q2046.65 141.398 2043.24 141.398 M2043.24 137.787 Q2048.8 137.787 2051.97 141.398 Q2055.14 145.009 2055.14 151.398 Q2055.14 157.764 2051.97 161.398 Q2048.8 165.009 2043.24 165.009 Q2037.67 165.009 2034.49 161.398 Q2031.35 157.764 2031.35 151.398 Q2031.35 145.009 2034.49 141.398 Q2037.67 137.787 2043.24 137.787 Z" fill="#000000" fill-rule="evenodd" fill-opacity="1" /><path clip-path="url(#clip530)" d="M2079.26 142.347 L2079.26 128.319 L2083.52 128.319 L2083.52 164.338 L2079.26 164.338 L2079.26 160.449 Q2077.92 162.763 2075.86 163.898 Q2073.82 165.009 2070.95 165.009 Q2066.25 165.009 2063.29 161.259 Q2060.35 157.509 2060.35 151.398 Q2060.35 145.287 2063.29 141.537 Q2066.25 137.787 2070.95 137.787 Q2073.82 137.787 2075.86 138.921 Q2077.92 140.032 2079.26 142.347 M2064.75 151.398 Q2064.75 156.097 2066.67 158.782 Q2068.61 161.444 2071.99 161.444 Q2075.37 161.444 2077.32 158.782 Q2079.26 156.097 2079.26 151.398 Q2079.26 146.699 2077.32 144.037 Q2075.37 141.352 2071.99 141.352 Q2068.61 141.352 2066.67 144.037 Q2064.75 146.699 2064.75 151.398 Z" fill="#000000" fill-rule="evenodd" fill-opacity="1" /><path clip-path="url(#clip530)" d="M2091.86 154.106 L2091.86 138.412 L2096.11 138.412 L2096.11 153.944 Q2096.11 157.625 2097.55 159.476 Q2098.98 161.305 2101.86 161.305 Q2105.3 161.305 2107.29 159.106 Q2109.31 156.907 2109.31 153.111 L2109.31 138.412 L2113.57 138.412 L2113.57 164.338 L2109.31 164.338 L2109.31 160.356 Q2107.76 162.717 2105.7 163.875 Q2103.66 165.009 2100.95 165.009 Q2096.48 165.009 2094.17 162.231 Q2091.86 159.453 2091.86 154.106 M2102.57 137.787 L2102.57 137.787 Z" fill="#000000" fill-rule="evenodd" fill-opacity="1" /><path clip-path="url(#clip530)" d="M2141 139.407 L2141 143.389 Q2139.19 142.393 2137.36 141.907 Q2135.56 141.398 2133.71 141.398 Q2129.56 141.398 2127.27 144.037 Q2124.98 146.652 2124.98 151.398 Q2124.98 156.143 2127.27 158.782 Q2129.56 161.398 2133.71 161.398 Q2135.56 161.398 2137.36 160.912 Q2139.19 160.402 2141 159.407 L2141 163.342 Q2139.22 164.176 2137.29 164.592 Q2135.4 165.009 2133.24 165.009 Q2127.39 165.009 2123.94 161.328 Q2120.49 157.648 2120.49 151.398 Q2120.49 145.055 2123.96 141.421 Q2127.46 137.787 2133.52 137.787 Q2135.49 137.787 2137.36 138.203 Q2139.24 138.597 2141 139.407 Z" fill="#000000" fill-rule="evenodd" fill-opacity="1" /><path clip-path="url(#clip530)" d="M2152.62 131.051 L2152.62 138.412 L2161.39 138.412 L2161.39 141.722 L2152.62 141.722 L2152.62 155.796 Q2152.62 158.967 2153.48 159.87 Q2154.35 160.773 2157.02 160.773 L2161.39 160.773 L2161.39 164.338 L2157.02 164.338 Q2152.09 164.338 2150.21 162.509 Q2148.34 160.657 2148.34 155.796 L2148.34 141.722 L2145.21 141.722 L2145.21 138.412 L2148.34 138.412 L2148.34 131.051 L2152.62 131.051 Z" fill="#000000" fill-rule="evenodd" fill-opacity="1" /><path clip-path="url(#clip530)" d="M2166.99 138.412 L2171.25 138.412 L2171.25 164.338 L2166.99 164.338 L2166.99 138.412 M2166.99 128.319 L2171.25 128.319 L2171.25 133.713 L2166.99 133.713 L2166.99 128.319 Z" fill="#000000" fill-rule="evenodd" fill-opacity="1" /><path clip-path="url(#clip530)" d="M2190.21 141.398 Q2186.79 141.398 2184.79 144.083 Q2182.8 146.745 2182.8 151.398 Q2182.8 156.051 2184.77 158.736 Q2186.76 161.398 2190.21 161.398 Q2193.61 161.398 2195.6 158.713 Q2197.6 156.027 2197.6 151.398 Q2197.6 146.791 2195.6 144.106 Q2193.61 141.398 2190.21 141.398 M2190.21 137.787 Q2195.77 137.787 2198.94 141.398 Q2202.11 145.009 2202.11 151.398 Q2202.11 157.764 2198.94 161.398 Q2195.77 165.009 2190.21 165.009 Q2184.63 165.009 2181.46 161.398 Q2178.31 157.764 2178.31 151.398 Q2178.31 145.009 2181.46 141.398 Q2184.63 137.787 2190.21 137.787 Z" fill="#000000" fill-rule="evenodd" fill-opacity="1" /><path clip-path="url(#clip530)" d="M2230.72 148.689 L2230.72 164.338 L2226.46 164.338 L2226.46 148.828 Q2226.46 145.148 2225.03 143.319 Q2223.59 141.49 2220.72 141.49 Q2217.27 141.49 2215.28 143.69 Q2213.29 145.889 2213.29 149.685 L2213.29 164.338 L2209.01 164.338 L2209.01 138.412 L2213.29 138.412 L2213.29 142.44 Q2214.82 140.102 2216.88 138.944 Q2218.96 137.787 2221.67 137.787 Q2226.14 137.787 2228.43 140.565 Q2230.72 143.319 2230.72 148.689 Z" fill="#000000" fill-rule="evenodd" fill-opacity="1" /><polyline clip-path="url(#clip530)" style="stroke:#e26f46; stroke-linecap:round; stroke-linejoin:round; stroke-width:4; stroke-opacity:1; fill:none" points="
  1614.73,198.898 1761.18,198.898 
  "/>
<path clip-path="url(#clip530)" d="M1785.58 181.618 L1807.44 181.618 L1807.44 185.553 L1790.26 185.553 L1790.26 195.784 L1806.72 195.784 L1806.72 199.719 L1790.26 199.719 L1790.26 212.242 L1807.85 212.242 L1807.85 216.178 L1785.58 216.178 L1785.58 181.618 Z" fill="#000000" fill-rule="evenodd" fill-opacity="1" /><path clip-path="url(#clip530)" d="M1836.9 200.529 L1836.9 216.178 L1832.64 216.178 L1832.64 200.668 Q1832.64 196.988 1831.21 195.159 Q1829.77 193.33 1826.9 193.33 Q1823.45 193.33 1821.46 195.53 Q1819.47 197.729 1819.47 201.525 L1819.47 216.178 L1815.19 216.178 L1815.19 190.252 L1819.47 190.252 L1819.47 194.28 Q1821 191.942 1823.06 190.784 Q1825.14 189.627 1827.85 189.627 Q1832.32 189.627 1834.61 192.405 Q1836.9 195.159 1836.9 200.529 Z" fill="#000000" fill-rule="evenodd" fill-opacity="1" /><path clip-path="url(#clip530)" d="M1849.61 182.891 L1849.61 190.252 L1858.38 190.252 L1858.38 193.562 L1849.61 193.562 L1849.61 207.636 Q1849.61 210.807 1850.47 211.71 Q1851.35 212.613 1854.01 212.613 L1858.38 212.613 L1858.38 216.178 L1854.01 216.178 Q1849.08 216.178 1847.2 214.349 Q1845.33 212.497 1845.33 207.636 L1845.33 193.562 L1842.2 193.562 L1842.2 190.252 L1845.33 190.252 L1845.33 182.891 L1849.61 182.891 Z" fill="#000000" fill-rule="evenodd" fill-opacity="1" /><path clip-path="url(#clip530)" d="M1879.01 194.233 Q1878.29 193.817 1877.43 193.631 Q1876.6 193.423 1875.58 193.423 Q1871.97 193.423 1870.03 195.784 Q1868.11 198.122 1868.11 202.52 L1868.11 216.178 L1863.82 216.178 L1863.82 190.252 L1868.11 190.252 L1868.11 194.28 Q1869.45 191.918 1871.6 190.784 Q1873.75 189.627 1876.83 189.627 Q1877.27 189.627 1877.81 189.696 Q1878.34 189.743 1878.99 189.858 L1879.01 194.233 Z" fill="#000000" fill-rule="evenodd" fill-opacity="1" /><path clip-path="url(#clip530)" d="M1892.48 193.238 Q1889.06 193.238 1887.06 195.923 Q1885.07 198.585 1885.07 203.238 Q1885.07 207.891 1887.04 210.576 Q1889.03 213.238 1892.48 213.238 Q1895.88 213.238 1897.87 210.553 Q1899.87 207.867 1899.87 203.238 Q1899.87 198.631 1897.87 195.946 Q1895.88 193.238 1892.48 193.238 M1892.48 189.627 Q1898.04 189.627 1901.21 193.238 Q1904.38 196.849 1904.38 203.238 Q1904.38 209.604 1901.21 213.238 Q1898.04 216.849 1892.48 216.849 Q1886.9 216.849 1883.73 213.238 Q1880.58 209.604 1880.58 203.238 Q1880.58 196.849 1883.73 193.238 Q1886.9 189.627 1892.48 189.627 Z" fill="#000000" fill-rule="evenodd" fill-opacity="1" /><path clip-path="url(#clip530)" d="M1915.56 212.289 L1915.56 226.039 L1911.28 226.039 L1911.28 190.252 L1915.56 190.252 L1915.56 194.187 Q1916.9 191.872 1918.94 190.761 Q1921 189.627 1923.85 189.627 Q1928.57 189.627 1931.51 193.377 Q1934.47 197.127 1934.47 203.238 Q1934.47 209.349 1931.51 213.099 Q1928.57 216.849 1923.85 216.849 Q1921 216.849 1918.94 215.738 Q1916.9 214.603 1915.56 212.289 M1930.05 203.238 Q1930.05 198.539 1928.11 195.877 Q1926.18 193.192 1922.81 193.192 Q1919.43 193.192 1917.48 195.877 Q1915.56 198.539 1915.56 203.238 Q1915.56 207.937 1917.48 210.622 Q1919.43 213.284 1922.81 213.284 Q1926.18 213.284 1928.11 210.622 Q1930.05 207.937 1930.05 203.238 Z" fill="#000000" fill-rule="evenodd" fill-opacity="1" /><path clip-path="url(#clip530)" d="M1952.32 218.585 Q1950.51 223.215 1948.8 224.627 Q1947.09 226.039 1944.22 226.039 L1940.81 226.039 L1940.81 222.474 L1943.31 222.474 Q1945.07 222.474 1946.05 221.64 Q1947.02 220.807 1948.2 217.705 L1948.96 215.761 L1938.48 190.252 L1942.99 190.252 L1951.09 210.529 L1959.19 190.252 L1963.71 190.252 L1952.32 218.585 Z" fill="#000000" fill-rule="evenodd" fill-opacity="1" /><path clip-path="url(#clip530)" d="M2003.27 203.238 Q2003.27 198.539 2001.32 195.877 Q1999.4 193.192 1996.02 193.192 Q1992.64 193.192 1990.7 195.877 Q1988.78 198.539 1988.78 203.238 Q1988.78 207.937 1990.7 210.622 Q1992.64 213.284 1996.02 213.284 Q1999.4 213.284 2001.32 210.622 Q2003.27 207.937 2003.27 203.238 M1988.78 194.187 Q1990.12 191.872 1992.16 190.761 Q1994.22 189.627 1997.06 189.627 Q2001.79 189.627 2004.73 193.377 Q2007.69 197.127 2007.69 203.238 Q2007.69 209.349 2004.73 213.099 Q2001.79 216.849 1997.06 216.849 Q1994.22 216.849 1992.16 215.738 Q1990.12 214.603 1988.78 212.289 L1988.78 216.178 L1984.49 216.178 L1984.49 180.159 L1988.78 180.159 L1988.78 194.187 Z" fill="#000000" fill-rule="evenodd" fill-opacity="1" /><path clip-path="url(#clip530)" d="M2026.53 203.145 Q2021.37 203.145 2019.38 204.326 Q2017.39 205.506 2017.39 208.354 Q2017.39 210.622 2018.87 211.965 Q2020.37 213.284 2022.94 213.284 Q2026.49 213.284 2028.61 210.784 Q2030.77 208.261 2030.77 204.094 L2030.77 203.145 L2026.53 203.145 M2035.03 201.386 L2035.03 216.178 L2030.77 216.178 L2030.77 212.242 Q2029.31 214.603 2027.13 215.738 Q2024.96 216.849 2021.81 216.849 Q2017.83 216.849 2015.47 214.627 Q2013.13 212.381 2013.13 208.631 Q2013.13 204.256 2016.05 202.034 Q2018.99 199.812 2024.8 199.812 L2030.77 199.812 L2030.77 199.395 Q2030.77 196.455 2028.82 194.858 Q2026.9 193.238 2023.41 193.238 Q2021.18 193.238 2019.08 193.77 Q2016.97 194.303 2015.03 195.367 L2015.03 191.432 Q2017.36 190.53 2019.56 190.09 Q2021.76 189.627 2023.85 189.627 Q2029.47 189.627 2032.25 192.543 Q2035.03 195.46 2035.03 201.386 Z" fill="#000000" fill-rule="evenodd" fill-opacity="1" /><path clip-path="url(#clip530)" d="M2043.8 180.159 L2048.06 180.159 L2048.06 216.178 L2043.8 216.178 L2043.8 180.159 Z" fill="#000000" fill-rule="evenodd" fill-opacity="1" /><path clip-path="url(#clip530)" d="M2068.75 203.145 Q2063.59 203.145 2061.6 204.326 Q2059.61 205.506 2059.61 208.354 Q2059.61 210.622 2061.09 211.965 Q2062.6 213.284 2065.17 213.284 Q2068.71 213.284 2070.84 210.784 Q2072.99 208.261 2072.99 204.094 L2072.99 203.145 L2068.75 203.145 M2077.25 201.386 L2077.25 216.178 L2072.99 216.178 L2072.99 212.242 Q2071.53 214.603 2069.36 215.738 Q2067.18 216.849 2064.03 216.849 Q2060.05 216.849 2057.69 214.627 Q2055.35 212.381 2055.35 208.631 Q2055.35 204.256 2058.27 202.034 Q2061.21 199.812 2067.02 199.812 L2072.99 199.812 L2072.99 199.395 Q2072.99 196.455 2071.05 194.858 Q2069.12 193.238 2065.63 193.238 Q2063.41 193.238 2061.3 193.77 Q2059.19 194.303 2057.25 195.367 L2057.25 191.432 Q2059.59 190.53 2061.79 190.09 Q2063.98 189.627 2066.07 189.627 Q2071.69 189.627 2074.47 192.543 Q2077.25 195.46 2077.25 201.386 Z" fill="#000000" fill-rule="evenodd" fill-opacity="1" /><path clip-path="url(#clip530)" d="M2107.57 200.529 L2107.57 216.178 L2103.31 216.178 L2103.31 200.668 Q2103.31 196.988 2101.88 195.159 Q2100.44 193.33 2097.57 193.33 Q2094.12 193.33 2092.13 195.53 Q2090.14 197.729 2090.14 201.525 L2090.14 216.178 L2085.86 216.178 L2085.86 190.252 L2090.14 190.252 L2090.14 194.28 Q2091.67 191.942 2093.73 190.784 Q2095.81 189.627 2098.52 189.627 Q2102.99 189.627 2105.28 192.405 Q2107.57 195.159 2107.57 200.529 Z" fill="#000000" fill-rule="evenodd" fill-opacity="1" /><path clip-path="url(#clip530)" d="M2134.73 191.247 L2134.73 195.229 Q2132.92 194.233 2131.09 193.747 Q2129.29 193.238 2127.43 193.238 Q2123.29 193.238 2121 195.877 Q2118.71 198.492 2118.71 203.238 Q2118.71 207.983 2121 210.622 Q2123.29 213.238 2127.43 213.238 Q2129.29 213.238 2131.09 212.752 Q2132.92 212.242 2134.73 211.247 L2134.73 215.182 Q2132.94 216.016 2131.02 216.432 Q2129.12 216.849 2126.97 216.849 Q2121.11 216.849 2117.67 213.168 Q2114.22 209.488 2114.22 203.238 Q2114.22 196.895 2117.69 193.261 Q2121.18 189.627 2127.25 189.627 Q2129.22 189.627 2131.09 190.043 Q2132.97 190.437 2134.73 191.247 Z" fill="#000000" fill-rule="evenodd" fill-opacity="1" /><path clip-path="url(#clip530)" d="M2164.31 202.15 L2164.31 204.233 L2144.73 204.233 Q2145 208.631 2147.36 210.946 Q2149.75 213.238 2153.98 213.238 Q2156.44 213.238 2158.73 212.636 Q2161.04 212.034 2163.31 210.83 L2163.31 214.858 Q2161.02 215.83 2158.61 216.34 Q2156.21 216.849 2153.73 216.849 Q2147.53 216.849 2143.89 213.238 Q2140.28 209.627 2140.28 203.469 Q2140.28 197.104 2143.71 193.377 Q2147.16 189.627 2152.99 189.627 Q2158.22 189.627 2161.25 193.006 Q2164.31 196.363 2164.31 202.15 M2160.05 200.9 Q2160 197.405 2158.08 195.321 Q2156.18 193.238 2153.04 193.238 Q2149.47 193.238 2147.32 195.252 Q2145.19 197.266 2144.86 200.923 L2160.05 200.9 Z" fill="#000000" fill-rule="evenodd" fill-opacity="1" /><polyline clip-path="url(#clip530)" style="stroke:#3da44d; stroke-linecap:round; stroke-linejoin:round; stroke-width:4; stroke-opacity:1; fill:none" points="
  1614.73,250.738 1761.18,250.738 
  "/>
<path clip-path="url(#clip530)" d="M1785.58 233.458 L1790.31 233.458 L1797.57 262.67 L1804.82 233.458 L1810.07 233.458 L1817.34 262.67 L1824.59 233.458 L1829.33 233.458 L1820.65 268.018 L1814.77 268.018 L1807.48 238.018 L1800.12 268.018 L1794.24 268.018 L1785.58 233.458 Z" fill="#000000" fill-rule="evenodd" fill-opacity="1" /><path clip-path="url(#clip530)" d="M1842.62 245.078 Q1839.19 245.078 1837.2 247.763 Q1835.21 250.425 1835.21 255.078 Q1835.21 259.731 1837.18 262.416 Q1839.17 265.078 1842.62 265.078 Q1846.02 265.078 1848.01 262.393 Q1850 259.707 1850 255.078 Q1850 250.471 1848.01 247.786 Q1846.02 245.078 1842.62 245.078 M1842.62 241.467 Q1848.18 241.467 1851.35 245.078 Q1854.52 248.689 1854.52 255.078 Q1854.52 261.444 1851.35 265.078 Q1848.18 268.689 1842.62 268.689 Q1837.04 268.689 1833.87 265.078 Q1830.72 261.444 1830.72 255.078 Q1830.72 248.689 1833.87 245.078 Q1837.04 241.467 1842.62 241.467 Z" fill="#000000" fill-rule="evenodd" fill-opacity="1" /><path clip-path="url(#clip530)" d="M1876.6 246.073 Q1875.88 245.657 1875.03 245.471 Q1874.19 245.263 1873.18 245.263 Q1869.56 245.263 1867.62 247.624 Q1865.7 249.962 1865.7 254.36 L1865.7 268.018 L1861.42 268.018 L1861.42 242.092 L1865.7 242.092 L1865.7 246.12 Q1867.04 243.758 1869.19 242.624 Q1871.35 241.467 1874.43 241.467 Q1874.87 241.467 1875.4 241.536 Q1875.93 241.583 1876.58 241.698 L1876.6 246.073 Z" fill="#000000" fill-rule="evenodd" fill-opacity="1" /><path clip-path="url(#clip530)" d="M1880.91 231.999 L1885.19 231.999 L1885.19 253.272 L1897.9 242.092 L1903.34 242.092 L1889.59 254.221 L1903.92 268.018 L1898.36 268.018 L1885.19 255.356 L1885.19 268.018 L1880.91 268.018 L1880.91 231.999 Z" fill="#000000" fill-rule="evenodd" fill-opacity="1" /><polyline clip-path="url(#clip530)" style="stroke:#c271d2; stroke-linecap:round; stroke-linejoin:round; stroke-width:4; stroke-opacity:1; fill:none" points="
  1614.73,302.578 1761.18,302.578 
  "/>
<path clip-path="url(#clip530)" d="M1785.58 285.298 L1790.26 285.298 L1790.26 299.464 L1807.25 299.464 L1807.25 285.298 L1811.93 285.298 L1811.93 319.858 L1807.25 319.858 L1807.25 303.399 L1790.26 303.399 L1790.26 319.858 L1785.58 319.858 L1785.58 285.298 Z" fill="#000000" fill-rule="evenodd" fill-opacity="1" /><path clip-path="url(#clip530)" d="M1843.22 305.83 L1843.22 307.913 L1823.64 307.913 Q1823.92 312.311 1826.28 314.626 Q1828.66 316.918 1832.9 316.918 Q1835.35 316.918 1837.64 316.316 Q1839.96 315.714 1842.23 314.51 L1842.23 318.538 Q1839.94 319.51 1837.53 320.02 Q1835.12 320.529 1832.64 320.529 Q1826.44 320.529 1822.81 316.918 Q1819.19 313.307 1819.19 307.149 Q1819.19 300.784 1822.62 297.057 Q1826.07 293.307 1831.9 293.307 Q1837.13 293.307 1840.17 296.686 Q1843.22 300.043 1843.22 305.83 M1838.96 304.58 Q1838.92 301.085 1837 299.001 Q1835.1 296.918 1831.95 296.918 Q1828.38 296.918 1826.23 298.932 Q1824.1 300.946 1823.78 304.603 L1838.96 304.58 Z" fill="#000000" fill-rule="evenodd" fill-opacity="1" /><path clip-path="url(#clip530)" d="M1862 306.825 Q1856.83 306.825 1854.84 308.006 Q1852.85 309.186 1852.85 312.034 Q1852.85 314.302 1854.33 315.645 Q1855.84 316.964 1858.41 316.964 Q1861.95 316.964 1864.08 314.464 Q1866.23 311.941 1866.23 307.774 L1866.23 306.825 L1862 306.825 M1870.49 305.066 L1870.49 319.858 L1866.23 319.858 L1866.23 315.922 Q1864.77 318.283 1862.6 319.418 Q1860.42 320.529 1857.27 320.529 Q1853.29 320.529 1850.93 318.307 Q1848.59 316.061 1848.59 312.311 Q1848.59 307.936 1851.51 305.714 Q1854.45 303.492 1860.26 303.492 L1866.23 303.492 L1866.23 303.075 Q1866.23 300.135 1864.29 298.538 Q1862.37 296.918 1858.87 296.918 Q1856.65 296.918 1854.54 297.45 Q1852.44 297.983 1850.49 299.047 L1850.49 295.112 Q1852.83 294.21 1855.03 293.77 Q1857.23 293.307 1859.31 293.307 Q1864.94 293.307 1867.71 296.223 Q1870.49 299.14 1870.49 305.066 Z" fill="#000000" fill-rule="evenodd" fill-opacity="1" /><path clip-path="url(#clip530)" d="M1883.48 286.571 L1883.48 293.932 L1892.25 293.932 L1892.25 297.242 L1883.48 297.242 L1883.48 311.316 Q1883.48 314.487 1884.33 315.39 Q1885.21 316.293 1887.87 316.293 L1892.25 316.293 L1892.25 319.858 L1887.87 319.858 Q1882.94 319.858 1881.07 318.029 Q1879.19 316.177 1879.19 311.316 L1879.19 297.242 L1876.07 297.242 L1876.07 293.932 L1879.19 293.932 L1879.19 286.571 L1883.48 286.571 Z" fill="#000000" fill-rule="evenodd" fill-opacity="1" /><path clip-path="url(#clip530)" d="M1935.1 305.83 L1935.1 307.913 L1915.51 307.913 Q1915.79 312.311 1918.15 314.626 Q1920.54 316.918 1924.77 316.918 Q1927.23 316.918 1929.52 316.316 Q1931.83 315.714 1934.1 314.51 L1934.1 318.538 Q1931.81 319.51 1929.4 320.02 Q1926.99 320.529 1924.52 320.529 Q1918.31 320.529 1914.68 316.918 Q1911.07 313.307 1911.07 307.149 Q1911.07 300.784 1914.49 297.057 Q1917.94 293.307 1923.78 293.307 Q1929.01 293.307 1932.04 296.686 Q1935.1 300.043 1935.1 305.83 M1930.84 304.58 Q1930.79 301.085 1928.87 299.001 Q1926.97 296.918 1923.82 296.918 Q1920.26 296.918 1918.11 298.932 Q1915.98 300.946 1915.65 304.603 L1930.84 304.58 Z" fill="#000000" fill-rule="evenodd" fill-opacity="1" /><path clip-path="url(#clip530)" d="M1962.8 293.932 L1953.43 306.547 L1963.29 319.858 L1958.27 319.858 L1950.72 309.672 L1943.18 319.858 L1938.15 319.858 L1948.22 306.293 L1939.01 293.932 L1944.03 293.932 L1950.91 303.168 L1957.78 293.932 L1962.8 293.932 Z" fill="#000000" fill-rule="evenodd" fill-opacity="1" /><path clip-path="url(#clip530)" d="M1987.13 294.927 L1987.13 298.909 Q1985.33 297.913 1983.5 297.427 Q1981.69 296.918 1979.84 296.918 Q1975.7 296.918 1973.41 299.557 Q1971.12 302.172 1971.12 306.918 Q1971.12 311.663 1973.41 314.302 Q1975.7 316.918 1979.84 316.918 Q1981.69 316.918 1983.5 316.432 Q1985.33 315.922 1987.13 314.927 L1987.13 318.862 Q1985.35 319.696 1983.43 320.112 Q1981.53 320.529 1979.38 320.529 Q1973.52 320.529 1970.07 316.848 Q1966.62 313.168 1966.62 306.918 Q1966.62 300.575 1970.1 296.941 Q1973.59 293.307 1979.66 293.307 Q1981.62 293.307 1983.5 293.723 Q1985.37 294.117 1987.13 294.927 Z" fill="#000000" fill-rule="evenodd" fill-opacity="1" /><path clip-path="url(#clip530)" d="M2016.09 304.209 L2016.09 319.858 L2011.83 319.858 L2011.83 304.348 Q2011.83 300.668 2010.4 298.839 Q2008.96 297.01 2006.09 297.01 Q2002.64 297.01 2000.65 299.21 Q1998.66 301.409 1998.66 305.205 L1998.66 319.858 L1994.38 319.858 L1994.38 283.839 L1998.66 283.839 L1998.66 297.96 Q2000.19 295.622 2002.25 294.464 Q2004.33 293.307 2007.04 293.307 Q2011.51 293.307 2013.8 296.085 Q2016.09 298.839 2016.09 304.209 Z" fill="#000000" fill-rule="evenodd" fill-opacity="1" /><path clip-path="url(#clip530)" d="M2036.37 306.825 Q2031.21 306.825 2029.22 308.006 Q2027.23 309.186 2027.23 312.034 Q2027.23 314.302 2028.71 315.645 Q2030.21 316.964 2032.78 316.964 Q2036.32 316.964 2038.45 314.464 Q2040.61 311.941 2040.61 307.774 L2040.61 306.825 L2036.37 306.825 M2044.86 305.066 L2044.86 319.858 L2040.61 319.858 L2040.61 315.922 Q2039.15 318.283 2036.97 319.418 Q2034.8 320.529 2031.65 320.529 Q2027.67 320.529 2025.3 318.307 Q2022.97 316.061 2022.97 312.311 Q2022.97 307.936 2025.88 305.714 Q2028.82 303.492 2034.63 303.492 L2040.61 303.492 L2040.61 303.075 Q2040.61 300.135 2038.66 298.538 Q2036.74 296.918 2033.24 296.918 Q2031.02 296.918 2028.92 297.45 Q2026.81 297.983 2024.86 299.047 L2024.86 295.112 Q2027.2 294.21 2029.4 293.77 Q2031.6 293.307 2033.68 293.307 Q2039.31 293.307 2042.09 296.223 Q2044.86 299.14 2044.86 305.066 Z" fill="#000000" fill-rule="evenodd" fill-opacity="1" /><path clip-path="url(#clip530)" d="M2075.19 304.209 L2075.19 319.858 L2070.93 319.858 L2070.93 304.348 Q2070.93 300.668 2069.49 298.839 Q2068.06 297.01 2065.19 297.01 Q2061.74 297.01 2059.75 299.21 Q2057.76 301.409 2057.76 305.205 L2057.76 319.858 L2053.48 319.858 L2053.48 293.932 L2057.76 293.932 L2057.76 297.96 Q2059.29 295.622 2061.35 294.464 Q2063.43 293.307 2066.14 293.307 Q2070.61 293.307 2072.9 296.085 Q2075.19 298.839 2075.19 304.209 Z" fill="#000000" fill-rule="evenodd" fill-opacity="1" /><path clip-path="url(#clip530)" d="M2100.74 306.594 Q2100.74 301.964 2098.82 299.418 Q2096.92 296.872 2093.48 296.872 Q2090.05 296.872 2088.13 299.418 Q2086.23 301.964 2086.23 306.594 Q2086.23 311.2 2088.13 313.746 Q2090.05 316.293 2093.48 316.293 Q2096.92 316.293 2098.82 313.746 Q2100.74 311.2 2100.74 306.594 M2105 316.64 Q2105 323.26 2102.06 326.478 Q2099.12 329.719 2093.06 329.719 Q2090.81 329.719 2088.82 329.371 Q2086.83 329.047 2084.96 328.353 L2084.96 324.209 Q2086.83 325.228 2088.66 325.714 Q2090.49 326.2 2092.39 326.2 Q2096.58 326.2 2098.66 324.001 Q2100.74 321.825 2100.74 317.404 L2100.74 315.297 Q2099.42 317.589 2097.36 318.723 Q2095.3 319.858 2092.43 319.858 Q2087.67 319.858 2084.75 316.223 Q2081.83 312.589 2081.83 306.594 Q2081.83 300.575 2084.75 296.941 Q2087.67 293.307 2092.43 293.307 Q2095.3 293.307 2097.36 294.441 Q2099.42 295.575 2100.74 297.867 L2100.74 293.932 L2105 293.932 L2105 316.64 Z" fill="#000000" fill-rule="evenodd" fill-opacity="1" /><path clip-path="url(#clip530)" d="M2135.95 305.83 L2135.95 307.913 L2116.37 307.913 Q2116.65 312.311 2119.01 314.626 Q2121.39 316.918 2125.63 316.918 Q2128.08 316.918 2130.37 316.316 Q2132.69 315.714 2134.96 314.51 L2134.96 318.538 Q2132.67 319.51 2130.26 320.02 Q2127.85 320.529 2125.37 320.529 Q2119.17 320.529 2115.54 316.918 Q2111.92 313.307 2111.92 307.149 Q2111.92 300.784 2115.35 297.057 Q2118.8 293.307 2124.63 293.307 Q2129.86 293.307 2132.9 296.686 Q2135.95 300.043 2135.95 305.83 M2131.69 304.58 Q2131.65 301.085 2129.73 299.001 Q2127.83 296.918 2124.68 296.918 Q2121.11 296.918 2118.96 298.932 Q2116.83 300.946 2116.51 304.603 L2131.69 304.58 Z" fill="#000000" fill-rule="evenodd" fill-opacity="1" /><polyline clip-path="url(#clip530)" style="stroke:#ac8d18; stroke-linecap:round; stroke-linejoin:round; stroke-width:4; stroke-opacity:1; fill:none" points="
  1614.73,354.418 1761.18,354.418 
  "/>
<path clip-path="url(#clip530)" d="M1785.58 337.138 L1805.44 337.138 L1805.44 341.073 L1790.26 341.073 L1790.26 351.258 L1803.96 351.258 L1803.96 355.193 L1790.26 355.193 L1790.26 371.698 L1785.58 371.698 L1785.58 337.138 Z" fill="#000000" fill-rule="evenodd" fill-opacity="1" /><path clip-path="url(#clip530)" d="M1824.24 349.753 Q1823.52 349.337 1822.67 349.151 Q1821.83 348.943 1820.81 348.943 Q1817.2 348.943 1815.26 351.304 Q1813.34 353.642 1813.34 358.04 L1813.34 371.698 L1809.06 371.698 L1809.06 345.772 L1813.34 345.772 L1813.34 349.8 Q1814.68 347.438 1816.83 346.304 Q1818.99 345.147 1822.06 345.147 Q1822.5 345.147 1823.04 345.216 Q1823.57 345.263 1824.22 345.378 L1824.24 349.753 Z" fill="#000000" fill-rule="evenodd" fill-opacity="1" /><path clip-path="url(#clip530)" d="M1849.84 357.67 L1849.84 359.753 L1830.26 359.753 Q1830.54 364.151 1832.9 366.466 Q1835.28 368.758 1839.52 368.758 Q1841.97 368.758 1844.26 368.156 Q1846.58 367.554 1848.85 366.35 L1848.85 370.378 Q1846.56 371.35 1844.15 371.86 Q1841.74 372.369 1839.26 372.369 Q1833.06 372.369 1829.43 368.758 Q1825.81 365.147 1825.81 358.989 Q1825.81 352.624 1829.24 348.897 Q1832.69 345.147 1838.52 345.147 Q1843.75 345.147 1846.79 348.526 Q1849.84 351.883 1849.84 357.67 M1845.58 356.42 Q1845.54 352.925 1843.62 350.841 Q1841.72 348.758 1838.57 348.758 Q1835 348.758 1832.85 350.772 Q1830.72 352.786 1830.4 356.443 L1845.58 356.42 Z" fill="#000000" fill-rule="evenodd" fill-opacity="1" /><path clip-path="url(#clip530)" d="M1879.01 357.67 L1879.01 359.753 L1859.43 359.753 Q1859.7 364.151 1862.06 366.466 Q1864.45 368.758 1868.69 368.758 Q1871.14 368.758 1873.43 368.156 Q1875.75 367.554 1878.01 366.35 L1878.01 370.378 Q1875.72 371.35 1873.31 371.86 Q1870.91 372.369 1868.43 372.369 Q1862.23 372.369 1858.59 368.758 Q1854.98 365.147 1854.98 358.989 Q1854.98 352.624 1858.41 348.897 Q1861.86 345.147 1867.69 345.147 Q1872.92 345.147 1875.95 348.526 Q1879.01 351.883 1879.01 357.67 M1874.75 356.42 Q1874.7 352.925 1872.78 350.841 Q1870.88 348.758 1867.74 348.758 Q1864.17 348.758 1862.02 350.772 Q1859.89 352.786 1859.56 356.443 L1874.75 356.42 Z" fill="#000000" fill-rule="evenodd" fill-opacity="1" /><path clip-path="url(#clip530)" d="M1923.24 357.67 L1923.24 359.753 L1903.66 359.753 Q1903.94 364.151 1906.3 366.466 Q1908.68 368.758 1912.92 368.758 Q1915.37 368.758 1917.67 368.156 Q1919.98 367.554 1922.25 366.35 L1922.25 370.378 Q1919.96 371.35 1917.55 371.86 Q1915.14 372.369 1912.67 372.369 Q1906.46 372.369 1902.83 368.758 Q1899.22 365.147 1899.22 358.989 Q1899.22 352.624 1902.64 348.897 Q1906.09 345.147 1911.93 345.147 Q1917.16 345.147 1920.19 348.526 Q1923.24 351.883 1923.24 357.67 M1918.99 356.42 Q1918.94 352.925 1917.02 350.841 Q1915.12 348.758 1911.97 348.758 Q1908.41 348.758 1906.25 350.772 Q1904.12 352.786 1903.8 356.443 L1918.99 356.42 Z" fill="#000000" fill-rule="evenodd" fill-opacity="1" /><path clip-path="url(#clip530)" d="M1951.79 356.049 L1951.79 371.698 L1947.53 371.698 L1947.53 356.188 Q1947.53 352.508 1946.09 350.679 Q1944.66 348.85 1941.79 348.85 Q1938.34 348.85 1936.35 351.05 Q1934.36 353.249 1934.36 357.045 L1934.36 371.698 L1930.07 371.698 L1930.07 345.772 L1934.36 345.772 L1934.36 349.8 Q1935.88 347.462 1937.94 346.304 Q1940.03 345.147 1942.74 345.147 Q1947.2 345.147 1949.49 347.925 Q1951.79 350.679 1951.79 356.049 Z" fill="#000000" fill-rule="evenodd" fill-opacity="1" /><path clip-path="url(#clip530)" d="M1982.46 357.67 L1982.46 359.753 L1962.87 359.753 Q1963.15 364.151 1965.51 366.466 Q1967.9 368.758 1972.13 368.758 Q1974.59 368.758 1976.88 368.156 Q1979.19 367.554 1981.46 366.35 L1981.46 370.378 Q1979.17 371.35 1976.76 371.86 Q1974.36 372.369 1971.88 372.369 Q1965.68 372.369 1962.04 368.758 Q1958.43 365.147 1958.43 358.989 Q1958.43 352.624 1961.86 348.897 Q1965.3 345.147 1971.14 345.147 Q1976.37 345.147 1979.4 348.526 Q1982.46 351.883 1982.46 357.67 M1978.2 356.42 Q1978.15 352.925 1976.23 350.841 Q1974.33 348.758 1971.18 348.758 Q1967.62 348.758 1965.47 350.772 Q1963.34 352.786 1963.01 356.443 L1978.2 356.42 Z" fill="#000000" fill-rule="evenodd" fill-opacity="1" /><path clip-path="url(#clip530)" d="M2004.47 349.753 Q2003.75 349.337 2002.9 349.151 Q2002.06 348.943 2001.05 348.943 Q1997.43 348.943 1995.49 351.304 Q1993.57 353.642 1993.57 358.04 L1993.57 371.698 L1989.29 371.698 L1989.29 345.772 L1993.57 345.772 L1993.57 349.8 Q1994.91 347.438 1997.06 346.304 Q1999.22 345.147 2002.3 345.147 Q2002.74 345.147 2003.27 345.216 Q2003.8 345.263 2004.45 345.378 L2004.47 349.753 Z" fill="#000000" fill-rule="evenodd" fill-opacity="1" /><path clip-path="url(#clip530)" d="M2025.17 358.434 Q2025.17 353.804 2023.24 351.258 Q2021.35 348.712 2017.9 348.712 Q2014.47 348.712 2012.55 351.258 Q2010.65 353.804 2010.65 358.434 Q2010.65 363.04 2012.55 365.586 Q2014.47 368.133 2017.9 368.133 Q2021.35 368.133 2023.24 365.586 Q2025.17 363.04 2025.17 358.434 M2029.42 368.48 Q2029.42 375.1 2026.49 378.318 Q2023.55 381.559 2017.48 381.559 Q2015.24 381.559 2013.24 381.211 Q2011.25 380.887 2009.38 380.193 L2009.38 376.049 Q2011.25 377.068 2013.08 377.554 Q2014.91 378.04 2016.81 378.04 Q2021 378.04 2023.08 375.841 Q2025.17 373.665 2025.17 369.244 L2025.17 367.137 Q2023.85 369.429 2021.79 370.563 Q2019.73 371.698 2016.86 371.698 Q2012.09 371.698 2009.17 368.063 Q2006.25 364.429 2006.25 358.434 Q2006.25 352.415 2009.17 348.781 Q2012.09 345.147 2016.86 345.147 Q2019.73 345.147 2021.79 346.281 Q2023.85 347.415 2025.17 349.707 L2025.17 345.772 L2029.42 345.772 L2029.42 368.48 Z" fill="#000000" fill-rule="evenodd" fill-opacity="1" /><path clip-path="url(#clip530)" d="M2048.99 374.105 Q2047.18 378.735 2045.47 380.147 Q2043.75 381.559 2040.88 381.559 L2037.48 381.559 L2037.48 377.994 L2039.98 377.994 Q2041.74 377.994 2042.71 377.16 Q2043.68 376.327 2044.86 373.225 L2045.63 371.281 L2035.14 345.772 L2039.66 345.772 L2047.76 366.049 L2055.86 345.772 L2060.37 345.772 L2048.99 374.105 Z" fill="#000000" fill-rule="evenodd" fill-opacity="1" /></svg>
